<?xml version="1.0" encoding="iso-8859-1"?>
<!-- Generator: Adobe Illustrator 19.0.0, SVG Export Plug-In . SVG Version: 6.00 Build 0)  -->
<svg xmlns="http://www.w3.org/2000/svg" xmlns:xlink="http://www.w3.org/1999/xlink" version="1.1" id="Capa_1" x="0px" y="0px" viewBox="0 0 426.667 426.667" style="enable-background:new 0 0 426.667 426.667;" xml:space="preserve">
<rect x="13.7" y="235.761" style="fill:#FCD462;" width="227.712" height="163.285"/>
<rect y="388.772" style="fill:#EBF0F3;" width="392.235" height="27.076"/>
<rect x="167.723" y="255.742" style="fill:#27A2DB;" width="68.352" height="43.371"/>
<polygon style="fill:#2D93BA;" points="236.096,255.756 236.096,299.127 167.749,299.127 "/>
<rect x="93.06" y="255.742" style="fill:#27A2DB;" width="68.352" height="43.371"/>
<polygon style="fill:#2D93BA;" points="161.398,255.756 161.398,299.127 93.051,299.127 "/>
<rect x="18.347" y="255.742" style="fill:#27A2DB;" width="68.352" height="43.371"/>
<polygon style="fill:#2D93BA;" points="86.701,255.756 86.701,299.127 18.353,299.127 "/>
<rect x="168.064" y="326.543" style="fill:#27A2DB;" width="68.352" height="43.371"/>
<polygon style="fill:#2D93BA;" points="236.435,326.529 236.435,369.899 168.088,369.899 "/>
<rect x="93.406" y="326.543" style="fill:#27A2DB;" width="68.352" height="43.371"/>
<polygon style="fill:#2D93BA;" points="161.738,326.529 161.738,369.899 93.39,369.899 "/>
<rect x="18.688" y="326.543" style="fill:#27A2DB;" width="68.352" height="43.371"/>
<polygon style="fill:#2D93BA;" points="87.04,326.529 87.04,369.899 18.692,369.899 "/>
<rect x="241.408" y="283.727" style="fill:#F6C358;" width="130.121" height="104.619"/>
<rect x="318.677" y="297.295" style="fill:#2D93BA;" width="38.357" height="33.25"/>
<polygon style="fill:#27A2DB;" points="318.69,330.556 318.69,297.308 357.047,297.308 "/>
<rect x="263.211" y="297.295" style="fill:#2D93BA;" width="38.357" height="33.25"/>
<polygon style="fill:#27A2DB;" points="263.191,330.556 263.191,297.308 301.547,297.308 "/>
<rect x="318.677" y="341.199" style="fill:#2D93BA;" width="38.357" height="33.25"/>
<polygon style="fill:#27A2DB;" points="318.69,374.453 318.69,341.204 357.047,341.204 "/>
<rect x="263.211" y="341.199" style="fill:#2D93BA;" width="38.357" height="33.25"/>
<polygon style="fill:#27A2DB;" points="263.191,374.453 263.191,341.204 301.547,341.204 "/>
<polyline style="fill:#E1E6E9;" points="310.27,415.867 327.764,181.002 393.613,181.002 411.015,415.867 "/>
<g>
	<polygon style="fill:#E56353;" points="394.511,193.118 326.866,193.118 327.764,181.002 393.613,181.002  "/>
	<polygon style="fill:#E56353;" points="396.461,219.447 324.915,219.447 325.918,205.914 395.459,205.914  "/>
	<polygon style="fill:#E56353;" points="398.651,248.999 322.725,248.999 323.853,233.784 397.524,233.784  "/>
	<polygon style="fill:#E56353;" points="401.126,282.404 320.25,282.404 321.527,265.174 399.849,265.174  "/>
	<polygon style="fill:#E56353;" points="403.947,320.47 317.43,320.47 318.888,300.796 402.489,300.796  "/>
	<polygon style="fill:#E56353;" points="407.19,364.243 314.186,364.243 315.867,341.566 405.51,341.566  "/>
</g>
<g>
	<rect x="293.035" y="389.455" style="fill:#64798A;" width="133.632" height="26.423"/>
	<rect x="308.309" y="175.951" style="fill:#64798A;" width="104.789" height="5.043"/>
	<rect x="308.309" y="140.303" style="fill:#64798A;" width="4.813" height="40.7"/>
	<rect x="319.787" y="140.303" style="fill:#64798A;" width="4.813" height="40.7"/>
	<rect x="329.429" y="140.303" style="fill:#64798A;" width="4.813" height="40.7"/>
	<rect x="339.029" y="140.303" style="fill:#64798A;" width="4.813" height="40.7"/>
	<rect x="348.672" y="140.303" style="fill:#64798A;" width="4.813" height="40.7"/>
	<rect x="358.272" y="140.303" style="fill:#64798A;" width="4.813" height="40.7"/>
	<rect x="367.915" y="140.303" style="fill:#64798A;" width="4.813" height="40.7"/>
	<rect x="377.515" y="140.303" style="fill:#64798A;" width="4.813" height="40.7"/>
	<rect x="387.157" y="140.303" style="fill:#64798A;" width="4.813" height="40.7"/>
	<rect x="396.757" y="140.303" style="fill:#64798A;" width="4.813" height="40.7"/>
	<rect x="308.309" y="140.303" style="fill:#64798A;" width="104.789" height="5.043"/>
	<rect x="408.277" y="140.303" style="fill:#64798A;" width="4.813" height="40.7"/>
</g>
<rect x="328.149" y="92.384" style="fill:#3A556A;" width="65.097" height="47.915"/>
<rect x="363.947" y="100.145" style="fill:#2D93BA;" width="22.34" height="32.525"/>
<polygon style="fill:#27A2DB;" points="363.932,132.669 363.932,100.145 386.274,100.145 "/>
<g>
	<rect x="374.443" y="100.017" style="fill:#EBF0F3;" width="1.297" height="32.653"/>
	<rect x="363.947" y="107.898" style="fill:#EBF0F3;" width="22.34" height="1.553"/>
</g>
<rect x="335.019" y="100.145" style="fill:#2D93BA;" width="22.34" height="32.525"/>
<polygon style="fill:#27A2DB;" points="335.01,132.669 335.01,100.145 357.352,100.145 "/>
<g>
	<rect x="345.515" y="100.017" style="fill:#EBF0F3;" width="1.297" height="32.653"/>
	<rect x="335.019" y="107.898" style="fill:#EBF0F3;" width="22.34" height="1.553"/>
</g>
<rect x="316.544" y="85.967" style="fill:#E56353;" width="86.622" height="6.417"/>
<rect x="358.827" y="41.513" style="fill:#64798A;" width="5.231" height="44.454"/>
<path style="fill:#D5D6DB;" d="M366.389,13.885c7.301,5.671,11.975,24.126,3.116,35.532s-27.897,11.442-35.198,5.771"/>
<ellipse transform="matrix(-0.7897 -0.6134 0.6134 -0.7897 605.8464 276.752)" style="fill:#64798A;" cx="350.351" cy="34.55" rx="2.581" ry="26.15"/>
<polygon style="fill:#E56353;" points="350.749,38.205 314.651,18.417 317.163,13.831 354.325,33.593 "/>
<circle style="fill:#3A556A;" cx="316.117" cy="16.126" r="5.338"/>
<g>
</g>
<g>
</g>
<g>
</g>
<g>
</g>
<g>
</g>
<g>
</g>
<g>
</g>
<g>
</g>
<g>
</g>
<g>
</g>
<g>
</g>
<g>
</g>
<g>
</g>
<g>
</g>
<g>
</g>
</svg>
