<?xml version="1.0" encoding="iso-8859-1"?>
<!-- Generator: Adobe Illustrator 21.0.0, SVG Export Plug-In . SVG Version: 6.00 Build 0)  -->
<svg version="1.1" id="Capa_1" xmlns="http://www.w3.org/2000/svg" xmlns:xlink="http://www.w3.org/1999/xlink" x="0px" y="0px"
	 viewBox="0 0 512.001 512.001" style="enable-background:new 0 0 512.001 512.001;" xml:space="preserve">
<path style="fill:#FFDA45;" d="M206.553,411.95v50.603c0,27.309,22.139,49.448,49.447,49.448l0,0
	c27.309,0,49.447-22.139,49.447-49.448V411.95H206.553z"/>
<path style="fill:#FFB13B;" d="M256,411.95v100.051c27.309,0,49.447-22.139,49.447-49.448V411.95H256z"/>
<path style="fill:#FFE733;" d="M462.39,374.832L462.39,374.832c-37.018-27.226-58.876-70.438-58.876-116.39V190.4
	c0-81.469-66.044-147.514-147.514-147.514l0,0c-81.469,0-147.514,66.044-147.514,147.514v68.043
	c0,45.952-21.858,89.163-58.876,116.39l0,0l0,0v74.235h412.78L462.39,374.832L462.39,374.832z"/>
<path style="fill:#FFDA45;" d="M462.39,374.832c-37.018-27.226-58.876-70.438-58.876-116.39V190.4
	c0-81.469-66.044-147.514-147.514-147.514v406.181h206.39V374.832L462.39,374.832z"/>
<rect x="49.61" y="374.832" style="fill:#FFB13B;" width="412.784" height="74.232"/>
<rect x="255.995" y="374.832" style="fill:#FF9500;" width="206.387" height="74.232"/>
<path style="fill:#D9D9D9;" d="M71.288,196.35H41.271C41.271,111.501,91.403,34.43,168.987,0l12.176,27.437
	C114.417,57.056,71.288,123.359,71.288,196.35z"/>
<path style="fill:#C1C1C1;" d="M470.73,196.35h-30.017c0-72.991-43.128-139.294-109.874-168.914L343.013,0
	C420.598,34.43,470.73,111.501,470.73,196.35z"/>
<g>
</g>
<g>
</g>
<g>
</g>
<g>
</g>
<g>
</g>
<g>
</g>
<g>
</g>
<g>
</g>
<g>
</g>
<g>
</g>
<g>
</g>
<g>
</g>
<g>
</g>
<g>
</g>
<g>
</g>
</svg>
