<?xml version="1.0" encoding="iso-8859-1"?>
<!-- Generator: Adobe Illustrator 19.0.0, SVG Export Plug-In . SVG Version: 6.00 Build 0)  -->
<svg xmlns="http://www.w3.org/2000/svg" xmlns:xlink="http://www.w3.org/1999/xlink" version="1.1" id="Capa_1" x="0px" y="0px" viewBox="0 0 426.667 426.667" style="enable-background:new 0 0 426.667 426.667;" xml:space="preserve">
<rect y="352.175" style="fill:#64798A;" width="426.667" height="24.691"/>
<path style="fill:#DC8744;" d="M18.391,352.185c0-104.468,88.239-212.414,197.088-212.414s197.088,107.945,197.088,212.414"/>
<path style="fill:#D5D6DB;" d="M40.574,352.185c0-91.806,78.308-185.747,174.905-185.747s174.905,93.942,174.905,185.747"/>
<path style="fill:#EBF0F3;" d="M284.745,120.853c0,0-17.746-30.612-49.689-11.979c-9.23,5.384-6.655-7.833-21.295,3.626V59.629  c0,0,1.301,19.564,32.387,4.88c8.854-4.182,22.183-8.873,38.598-2.218C284.745,62.291,299.385,83.586,284.745,120.853z"/>
<rect x="203.093" y="49.801" style="fill:#DC8744;" width="10.65" height="98.475"/>
<rect x="183.765" y="244.484" style="fill:#2D93BA;" width="63.39" height="107.691"/>
<polygon style="fill:#27A2DB;" points="183.783,352.185 183.783,244.494 247.174,244.494 "/>
<rect x="291.797" y="250.628" style="fill:#2D93BA;" width="54.434" height="55.979"/>
<polygon style="fill:#27A2DB;" points="291.787,306.616 291.787,250.646 346.223,250.646 "/>
<g>
	<rect x="317.44" y="250.244" style="fill:#EBF0F3;" width="3.157" height="56.363"/>
	<rect x="291.797" y="276.271" style="fill:#EBF0F3;" width="54.434" height="4.736"/>
</g>
<rect x="94.379" y="250.628" style="fill:#2D93BA;" width="54.434" height="55.979"/>
<polygon style="fill:#27A2DB;" points="94.393,306.616 94.393,250.646 148.828,250.646 "/>
<g>
	<rect x="120.021" y="250.244" style="fill:#EBF0F3;" width="3.157" height="56.363"/>
	<rect x="94.379" y="276.271" style="fill:#EBF0F3;" width="54.434" height="4.736"/>
</g>
<polygon style="fill:#64798A;" points="228.077,211.903 215.607,205.467 203.236,212.09 205.504,198.242 195.382,188.523   209.254,186.4 215.369,173.77 221.674,186.307 235.576,188.22 225.601,198.091 "/>
<g>
</g>
<g>
</g>
<g>
</g>
<g>
</g>
<g>
</g>
<g>
</g>
<g>
</g>
<g>
</g>
<g>
</g>
<g>
</g>
<g>
</g>
<g>
</g>
<g>
</g>
<g>
</g>
<g>
</g>
</svg>
