<?xml version="1.0" encoding="iso-8859-1"?>
<!-- Generator: Adobe Illustrator 19.0.0, SVG Export Plug-In . SVG Version: 6.00 Build 0)  -->
<svg xmlns="http://www.w3.org/2000/svg" xmlns:xlink="http://www.w3.org/1999/xlink" version="1.1" id="Capa_1" x="0px" y="0px" viewBox="0 0 426.667 426.667" style="enable-background:new 0 0 426.667 426.667;" xml:space="preserve">
<rect x="80.162" y="148.046" style="fill:#3EA69B;" width="255.765" height="203.17"/>
<polygon style="fill:#44C4A1;" points="386.703,148.046 208.045,29.566 31.265,148.046 "/>
<polygon style="fill:#3A556A;" points="334.986,148.046 207.373,63.418 81.102,148.046 "/>
<path style="fill:#D5D6DB;" d="M244.716,351.214h-73.344v-66.078c0-15.19,12.314-27.504,27.504-27.504h18.336  c15.19,0,27.504,12.314,27.504,27.504V351.214z"/>
<rect x="31.266" y="351.234" style="fill:#31978C;" width="361.557" height="23.322"/>
<rect x="31.266" y="361.644" style="fill:#44C4A1;" width="361.557" height="12.885"/>
<rect y="373.762" style="fill:#31978C;" width="426.667" height="23.322"/>
<rect y="384.215" style="fill:#44C4A1;" width="426.667" height="12.885"/>
<rect x="95.189" y="148.046" style="fill:#D5D6DB;" width="51.712" height="203.17"/>
<g>
	<rect x="133.76" y="148.046" style="fill:#3A556A;" width="7.053" height="203.17"/>
	<rect x="117.538" y="148.046" style="fill:#3A556A;" width="7.053" height="203.17"/>
	<rect x="101.321" y="148.046" style="fill:#3A556A;" width="7.053" height="203.17"/>
</g>
<rect x="268.343" y="148.046" style="fill:#D5D6DB;" width="51.712" height="203.17"/>
<g>
	<rect x="306.893" y="148.046" style="fill:#3A556A;" width="7.053" height="203.17"/>
	<rect x="290.688" y="148.046" style="fill:#3A556A;" width="7.053" height="203.17"/>
	<rect x="274.475" y="148.046" style="fill:#3A556A;" width="7.053" height="203.17"/>
</g>
<g>
	<path style="fill:#EBF0F3;" d="M167.113,137.071h-14.457v-33.019h12.848c2.237,0,4.165,0.267,5.791,0.802   c1.62,0.537,2.837,1.262,3.658,2.174c1.482,1.7,2.22,3.623,2.22,5.763c0,2.584-0.832,4.504-2.501,5.763   c-0.568,0.441-0.964,0.716-1.185,0.826c-0.22,0.11-0.612,0.292-1.179,0.543c2.05,0.444,3.675,1.364,4.887,2.766   c1.212,1.399,1.824,3.14,1.824,5.218c0,2.3-0.788,4.331-2.364,6.094C174.826,136.049,171.647,137.071,167.113,137.071z    M160.028,117.421h3.493c2.05,0,3.57-0.22,4.562-0.661c0.992-0.441,1.488-1.394,1.488-2.86c0-1.463-0.457-2.433-1.372-2.906   c-0.915-0.471-2.457-0.708-4.628-0.708h-3.543V117.421z M160.028,130.837h5.052c2.11,0,3.691-0.262,4.749-0.78   c1.052-0.521,1.581-1.543,1.581-3.072c0-1.526-0.556-2.534-1.675-3.022c-1.118-0.49-2.909-0.733-5.361-0.733h-4.347V130.837z"/>
	<path style="fill:#EBF0F3;" d="M206.083,137.071h-6.661v-3.072c-1.824,2.3-4.088,3.449-6.777,3.449   c-2.694,0-4.953-0.78-6.782-2.339c-1.824-1.556-2.738-3.636-2.738-6.234c0-2.598,0.948-4.543,2.837-5.835   c1.884-1.289,4.468-1.937,7.747-1.937h5.289v-0.14c0-2.708-1.432-4.063-4.298-4.063c-1.229,0-2.529,0.245-3.901,0.733   c-1.366,0.488-2.523,1.094-3.471,1.818l-3.163-4.581c3.339-2.427,7.146-3.639,11.433-3.639c3.085,0,5.603,0.771,7.554,2.314   c1.956,1.545,2.931,3.986,2.931,7.322V137.071z M198.948,127.388v-1.229h-4.441c-2.832,0-4.248,0.882-4.248,2.645   c0,0.915,0.336,1.614,1.014,2.102c0.678,0.49,1.647,0.733,2.904,0.733c1.262,0,2.369-0.386,3.333-1.157   C198.468,129.71,198.948,128.68,198.948,127.388z"/>
	<path style="fill:#EBF0F3;" d="M219.642,122.9v14.171h-7.085v-25.413h7.085v2.832c2.138-2.171,4.551-3.259,7.229-3.259   c2.672,0,4.92,0.945,6.727,2.835c1.813,1.89,2.716,4.41,2.716,7.559v15.446h-7.085V122.71c0-3.904-1.432-5.857-4.298-5.857   c-1.416,0-2.656,0.512-3.708,1.534C220.165,119.413,219.642,120.917,219.642,122.9z"/>
	<path style="fill:#EBF0F3;" d="M249.829,137.071h-7.085v-35.052h7.085v18l7.89-8.41h8.926l-9.686,10.3l10.066,15.163h-8.408   l-6.474-9.73l-2.314,2.408V137.071z"/>
</g>
<g>
</g>
<g>
</g>
<g>
</g>
<g>
</g>
<g>
</g>
<g>
</g>
<g>
</g>
<g>
</g>
<g>
</g>
<g>
</g>
<g>
</g>
<g>
</g>
<g>
</g>
<g>
</g>
<g>
</g>
</svg>
