<?xml version="1.0" encoding="iso-8859-1"?>
<!-- Generator: Adobe Illustrator 19.0.0, SVG Export Plug-In . SVG Version: 6.00 Build 0)  -->
<svg xmlns="http://www.w3.org/2000/svg" xmlns:xlink="http://www.w3.org/1999/xlink" version="1.1" id="Capa_1" x="0px" y="0px" viewBox="0 0 426.658 426.658" style="enable-background:new 0 0 426.658 426.658;" xml:space="preserve">
<rect x="335.185" y="245.888" style="fill:#D5D6DB;" width="42.667" height="167.637"/>
<g>
	<rect x="362.918" y="245.888" style="fill:#64798A;" width="5.82" height="167.637"/>
	<rect x="344.273" y="245.888" style="fill:#64798A;" width="5.82" height="167.637"/>
</g>
<rect x="263.59" y="245.888" style="fill:#D5D6DB;" width="42.667" height="167.637"/>
<g>
	<rect x="291.324" y="245.888" style="fill:#64798A;" width="5.82" height="167.637"/>
	<rect x="272.678" y="245.888" style="fill:#64798A;" width="5.82" height="167.637"/>
</g>
<rect x="191.991" y="245.888" style="fill:#D5D6DB;" width="42.667" height="167.637"/>
<g>
	<rect x="219.729" y="245.888" style="fill:#64798A;" width="5.82" height="167.637"/>
	<rect x="201.084" y="245.888" style="fill:#64798A;" width="5.82" height="167.637"/>
</g>
<rect x="120.401" y="245.888" style="fill:#D5D6DB;" width="42.667" height="167.637"/>
<g>
	<rect x="148.16" y="245.888" style="fill:#64798A;" width="5.82" height="167.637"/>
	<rect x="129.489" y="245.888" style="fill:#64798A;" width="5.82" height="167.637"/>
</g>
<rect x="48.815" y="245.888" style="fill:#D5D6DB;" width="42.667" height="167.637"/>
<g>
	<rect x="76.574" y="245.888" style="fill:#64798A;" width="5.82" height="167.637"/>
	<rect x="57.916" y="245.888" style="fill:#64798A;" width="5.82" height="167.637"/>
</g>
<g>
	<rect x="22.012" y="245.888" style="fill:#3A556A;" width="382.635" height="12.843"/>
	<rect x="22.012" y="405.803" style="fill:#3A556A;" width="382.635" height="20.855"/>
</g>
<rect x="76.574" y="203.217" style="fill:#64798A;" width="279.936" height="42.662"/>
<g>
	<rect x="329.126" y="208.619" style="fill:#D5D6DB;" width="13.427" height="31.851"/>
	<rect x="307.452" y="208.619" style="fill:#D5D6DB;" width="13.427" height="31.851"/>
	<rect x="285.743" y="208.619" style="fill:#D5D6DB;" width="13.427" height="31.851"/>
	<rect x="264.051" y="208.619" style="fill:#D5D6DB;" width="13.427" height="31.851"/>
	<rect x="242.359" y="208.619" style="fill:#D5D6DB;" width="13.427" height="31.851"/>
	<rect x="220.668" y="208.619" style="fill:#D5D6DB;" width="13.427" height="31.851"/>
	<rect x="198.976" y="208.619" style="fill:#D5D6DB;" width="13.427" height="31.851"/>
	<rect x="177.276" y="208.619" style="fill:#D5D6DB;" width="13.427" height="31.851"/>
	<rect x="155.601" y="208.619" style="fill:#D5D6DB;" width="13.427" height="31.851"/>
	<rect x="133.884" y="208.619" style="fill:#D5D6DB;" width="13.427" height="31.851"/>
	<rect x="112.209" y="208.619" style="fill:#D5D6DB;" width="13.427" height="31.851"/>
	<rect x="90.534" y="208.619" style="fill:#D5D6DB;" width="13.427" height="31.851"/>
	<path style="fill:#D5D6DB;" d="M76.572,203.216c0-58.564,62.624-137.456,139.966-137.456s139.966,78.892,139.966,137.456"/>
	<rect x="187.358" y="59.597" style="fill:#D5D6DB;" width="58.359" height="14.383"/>
</g>
<path style="fill:#3A556A;" d="M217.362,54.115c-3.026,0-5.48-2.451-5.48-5.48V5.48c0-3.026,2.454-5.48,5.48-5.48  c3.026,0,5.48,2.454,5.48,5.48v43.155C222.842,51.664,220.388,54.115,217.362,54.115z"/>
<rect x="198.976" y="37.675" style="fill:#64798A;" width="36.77" height="21.918"/>
<g>
</g>
<g>
</g>
<g>
</g>
<g>
</g>
<g>
</g>
<g>
</g>
<g>
</g>
<g>
</g>
<g>
</g>
<g>
</g>
<g>
</g>
<g>
</g>
<g>
</g>
<g>
</g>
<g>
</g>
</svg>
