<?xml version="1.0" encoding="iso-8859-1"?>
<!-- Generator: Adobe Illustrator 19.0.0, SVG Export Plug-In . SVG Version: 6.00 Build 0)  -->
<svg xmlns="http://www.w3.org/2000/svg" xmlns:xlink="http://www.w3.org/1999/xlink" version="1.1" id="Capa_1" x="0px" y="0px" viewBox="0 0 426.679 426.679" style="enable-background:new 0 0 426.679 426.679;" xml:space="preserve">
<rect x="132.708" y="187.255" style="fill:#E56353;" width="160.252" height="84.237"/>
<rect x="8.092" y="271.488" style="fill:#FCD462;" width="410.752" height="138.65"/>
<polygon style="fill:#E56353;" points="272.705,191.537 272.705,410.143 153.384,410.143 153.384,191.537 153.384,183.975   217.205,75.699 272.705,183.975 "/>
<path style="fill:#E1E6E9;" d="M240.931,410.143h-56.315v-69.2c0-11.663,9.455-21.118,21.118-21.118h14.079  c11.663,0,21.118,9.455,21.118,21.118V410.143z"/>
<rect x="3.91" y="410.155" style="fill:#E56353;" width="418.859" height="16.525"/>
<rect x="351.247" y="300.075" style="fill:#3A556A;" width="45.577" height="39.509"/>
<polygon style="fill:#64798A;" points="351.264,339.578 351.264,300.071 396.841,300.071 "/>
<rect x="292.964" y="300.075" style="fill:#3A556A;" width="45.577" height="39.509"/>
<polygon style="fill:#64798A;" points="292.958,339.578 292.958,300.071 338.536,300.071 "/>
<rect x="351.247" y="355.2" style="fill:#3A556A;" width="45.577" height="39.509"/>
<polygon style="fill:#64798A;" points="351.264,394.711 351.264,355.203 396.841,355.203 "/>
<rect x="292.964" y="355.2" style="fill:#3A556A;" width="45.577" height="39.509"/>
<polygon style="fill:#64798A;" points="292.958,394.711 292.958,355.203 338.536,355.203 "/>
<g>
	<rect x="212.064" style="fill:#E56353;" width="10.624" height="93.85"/>
	<rect x="192.143" y="16.38" style="fill:#E56353;" width="50.466" height="10.624"/>
</g>
<rect x="87.127" y="300.075" style="fill:#3A556A;" width="45.577" height="39.509"/>
<polygon style="fill:#64798A;" points="87.128,339.578 87.128,300.071 132.705,300.071 "/>
<rect x="28.823" y="300.075" style="fill:#3A556A;" width="45.577" height="39.509"/>
<polygon style="fill:#64798A;" points="28.822,339.578 28.822,300.071 74.399,300.071 "/>
<rect x="87.127" y="355.2" style="fill:#3A556A;" width="45.577" height="39.509"/>
<polygon style="fill:#64798A;" points="87.128,394.711 87.128,355.203 132.705,355.203 "/>
<rect x="28.823" y="355.2" style="fill:#3A556A;" width="45.577" height="39.509"/>
<polygon style="fill:#64798A;" points="28.822,394.711 28.822,355.203 74.399,355.203 "/>
<g>
</g>
<g>
</g>
<g>
</g>
<g>
</g>
<g>
</g>
<g>
</g>
<g>
</g>
<g>
</g>
<g>
</g>
<g>
</g>
<g>
</g>
<g>
</g>
<g>
</g>
<g>
</g>
<g>
</g>
</svg>
