<?xml version="1.0" encoding="iso-8859-1"?>
<!-- Generator: Adobe Illustrator 19.0.0, SVG Export Plug-In . SVG Version: 6.00 Build 0)  -->
<svg xmlns="http://www.w3.org/2000/svg" xmlns:xlink="http://www.w3.org/1999/xlink" version="1.1" id="Capa_1" x="0px" y="0px" viewBox="0 0 426.684 426.684" style="enable-background:new 0 0 426.684 426.684;" xml:space="preserve">
<polygon style="fill:#DC8744;" points="230.809,80.161 67.138,28.282 5.222,73.337 2.281,69.293 66.239,22.753 232.323,75.393 "/>
<g>
	<rect x="392.619" y="103.899" style="fill:#F6C358;" width="16.256" height="294.387"/>
	<rect x="330.112" y="103.899" style="fill:#F6C358;" width="16.256" height="294.387"/>
	<rect x="267.605" y="103.899" style="fill:#F6C358;" width="16.256" height="294.387"/>
	<rect x="205.056" y="103.899" style="fill:#F6C358;" width="16.256" height="294.387"/>
	<rect x="142.549" y="193.968" style="fill:#F6C358;" width="16.256" height="204.356"/>
</g>
<g>
	<rect x="124.757" y="383.11" style="fill:#FCD462;" width="301.909" height="16.256"/>
	<rect x="124.762" y="327.003" style="fill:#FCD462;" width="301.909" height="16.256"/>
	<rect x="124.757" y="270.896" style="fill:#FCD462;" width="301.909" height="16.256"/>
	<rect x="124.774" y="214.832" style="fill:#FCD462;" width="301.909" height="16.256"/>
	<rect x="190.652" y="159.494" style="fill:#FCD462;" width="236.032" height="16.256"/>
	<rect x="190.63" y="103.942" style="fill:#FCD462;" width="236.032" height="16.256"/>
</g>
<rect x="22.507" y="369.542" style="fill:#E56353;" width="88.363" height="34.389"/>
<rect x="59.187" y="22.756" style="fill:#D15241;" width="15.006" height="346.795"/>
<rect y="67.773" style="fill:#3EA69B;" width="233.933" height="20.006"/>
<rect y="87.57" style="fill:#E56353;" width="30.635" height="23.223"/>
<g>
</g>
<g>
</g>
<g>
</g>
<g>
</g>
<g>
</g>
<g>
</g>
<g>
</g>
<g>
</g>
<g>
</g>
<g>
</g>
<g>
</g>
<g>
</g>
<g>
</g>
<g>
</g>
<g>
</g>
</svg>
