<?xml version="1.0" encoding="iso-8859-1"?>
<!-- Generator: Adobe Illustrator 19.0.0, SVG Export Plug-In . SVG Version: 6.00 Build 0)  -->
<svg xmlns="http://www.w3.org/2000/svg" xmlns:xlink="http://www.w3.org/1999/xlink" version="1.1" id="Capa_1" x="0px" y="0px" viewBox="0 0 426.667 426.667" style="enable-background:new 0 0 426.667 426.667;" xml:space="preserve">
<rect x="23.189" y="172.374" style="fill:#D5D6DB;" width="382.208" height="192.768"/>
<polygon style="fill:#E1E6E9;" points="426.667,172.386 208.173,39.398 0,172.386 "/>
<polygon style="fill:#64798A;" points="383.537,172.386 207.365,75.251 41.22,172.386 "/>
<path style="fill:#3A556A;" d="M247.791,365.142h-67.007v-63.659c0-13.878,11.25-25.128,25.128-25.128h16.752  c13.878,0,25.128,11.25,25.128,25.128V365.142z"/>
<rect x="13.99" y="365.142" style="fill:#64798A;" width="400.213" height="22.127"/>
<rect x="13.99" y="375.04" style="fill:#3A556A;" width="400.213" height="12.22"/>
<rect x="333.867" y="172.374" style="fill:#64798A;" width="46.135" height="192.768"/>
<g>
	<rect x="368.256" y="172.374" style="fill:#3A556A;" width="6.293" height="192.768"/>
	<rect x="353.792" y="172.374" style="fill:#3A556A;" width="6.293" height="192.768"/>
	<rect x="339.328" y="172.374" style="fill:#3A556A;" width="6.293" height="192.768"/>
</g>
<rect x="264.576" y="172.374" style="fill:#64798A;" width="46.135" height="192.768"/>
<g>
	<rect x="298.965" y="172.374" style="fill:#3A556A;" width="6.293" height="192.768"/>
	<rect x="284.501" y="172.374" style="fill:#3A556A;" width="6.293" height="192.768"/>
	<rect x="270.037" y="172.374" style="fill:#3A556A;" width="6.293" height="192.768"/>
</g>
<rect x="116.352" y="172.374" style="fill:#64798A;" width="46.135" height="192.768"/>
<g>
	<rect x="150.784" y="172.374" style="fill:#3A556A;" width="6.293" height="192.768"/>
	<rect x="136.294" y="172.374" style="fill:#3A556A;" width="6.293" height="192.768"/>
	<rect x="121.826" y="172.374" style="fill:#3A556A;" width="6.293" height="192.768"/>
</g>
<rect x="44.373" y="172.374" style="fill:#64798A;" width="46.135" height="192.768"/>
<g>
	<rect x="78.767" y="172.374" style="fill:#3A556A;" width="6.293" height="192.768"/>
	<rect x="64.299" y="172.374" style="fill:#3A556A;" width="6.293" height="192.768"/>
	<rect x="49.826" y="172.374" style="fill:#3A556A;" width="6.293" height="192.768"/>
	<rect x="34.991" y="172.374" style="fill:#3A556A;" width="66.701" height="10.372"/>
	<rect x="106.091" y="172.374" style="fill:#3A556A;" width="66.701" height="10.372"/>
	<rect x="253.781" y="172.374" style="fill:#3A556A;" width="66.701" height="10.372"/>
	<rect x="324.864" y="172.374" style="fill:#3A556A;" width="66.701" height="10.372"/>
</g>
<g>
	<path style="fill:#FCD462;" d="M150.811,149.505c3.299,0,5.999-1.304,8.095-3.913l4.304,4.431   c-3.416,3.847-7.441,5.771-12.075,5.771c-4.634,0-8.456-1.467-11.45-4.39c-3-2.929-4.502-6.624-4.502-11.085   c0-4.466,1.528-8.187,4.588-11.176c3.055-2.984,6.791-4.477,11.212-4.477c4.938,0,9.07,1.883,12.399,5.639l-4.177,4.741   c-2.122-2.644-4.766-3.964-7.923-3.964c-2.523,0-4.685,0.827-6.476,2.477c-1.797,1.65-2.69,3.873-2.69,6.674   c0,2.797,0.848,5.04,2.538,6.735C146.35,148.662,148.4,149.505,150.811,149.505z"/>
	<path style="fill:#FCD462;" d="M193.176,151.291c-3.045,2.974-6.786,4.456-11.237,4.456c-4.446,0-8.192-1.482-11.237-4.456   c-3.04-2.969-4.563-6.664-4.563-11.085c0-4.416,1.523-8.116,4.563-11.085c3.045-2.969,6.791-4.456,11.237-4.456   c4.451,0,8.192,1.487,11.237,4.456c3.04,2.969,4.563,6.669,4.563,11.085C197.739,144.627,196.217,148.322,193.176,151.291z    M190.892,140.232c0-2.685-0.858-4.974-2.583-6.867c-1.721-1.893-3.837-2.842-6.349-2.842s-4.624,0.949-6.349,2.842   c-1.721,1.893-2.583,4.182-2.583,6.867c0,2.68,0.863,4.964,2.583,6.842c1.726,1.883,3.837,2.822,6.349,2.822   s4.629-0.939,6.349-2.822C190.035,145.195,190.892,142.912,190.892,140.232z"/>
	<path style="fill:#FCD462;" d="M211.387,147.677c1.117,1.391,2.624,2.086,4.517,2.086c1.893,0,3.396-0.695,4.502-2.086   c1.101-1.391,1.655-3.294,1.655-5.705v-16.617h6.715v16.835c0,4.36-1.203,7.71-3.614,10.05c-2.411,2.34-5.497,3.507-9.258,3.507   s-6.852-1.172-9.278-3.527s-3.634-5.7-3.634-10.029v-16.835h6.715v16.617C209.707,144.383,210.266,146.287,211.387,147.677z"/>
	<path style="fill:#FCD462;" d="M260.163,135.344c0,4.822-1.908,7.933-5.725,9.339l7.618,10.765h-8.268l-6.669-9.598h-4.649v9.598   h-6.72v-30.093h11.41c4.68,0,8.014,0.792,10.009,2.37C259.163,129.304,260.163,131.842,260.163,135.344z M252.068,138.917   c0.832-0.746,1.249-1.929,1.249-3.553c0-1.619-0.431-2.731-1.289-3.335c-0.863-0.604-2.37-0.903-4.522-0.903h-5.035v8.908h4.908   C249.672,140.034,251.235,139.663,252.068,138.917z"/>
	<path style="fill:#FCD462;" d="M279.186,131.167v24.281h-6.715v-24.281h-8.527v-5.811h23.769v5.811H279.186z"/>
</g>
<g>
</g>
<g>
</g>
<g>
</g>
<g>
</g>
<g>
</g>
<g>
</g>
<g>
</g>
<g>
</g>
<g>
</g>
<g>
</g>
<g>
</g>
<g>
</g>
<g>
</g>
<g>
</g>
<g>
</g>
</svg>
