<?xml version="1.0" encoding="iso-8859-1"?>
<!-- Generator: Adobe Illustrator 19.0.0, SVG Export Plug-In . SVG Version: 6.00 Build 0)  -->
<svg xmlns="http://www.w3.org/2000/svg" xmlns:xlink="http://www.w3.org/1999/xlink" version="1.1" id="Capa_1" x="0px" y="0px" viewBox="0 0 426.684 426.684" style="enable-background:new 0 0 426.684 426.684;" xml:space="preserve">
<path style="fill:#3A556A;" d="M263.85,228.906h-10.352v-34.402c0-26.221-21.331-47.555-47.555-47.555h-34.615v-10.352h34.615  c31.93,0,57.907,25.976,57.907,57.907V228.906z"/>
<polygon style="fill:#DC8744;" points="189.743,239.287 139.078,239.287 152.719,84.11 176.103,84.11 "/>
<path style="fill:#3A556A;" d="M340.196,267.264h-10.352V151.155c0-54.406-44.264-98.668-98.668-98.668h-121.96V42.135h121.96  c60.115,0,109.02,48.907,109.02,109.02V267.264z"/>
<polygon style="fill:#E56353;" points="128.658,232.817 77.993,232.817 91.633,0 115.017,0 "/>
<rect x="59.721" y="208.875" style="fill:#44C4A1;" width="145.195" height="202.496"/>
<rect x="38.942" y="411.392" style="fill:#F6C358;" width="348.8" height="15.292"/>
<rect x="139.081" y="284.203" style="fill:#3A556A;" width="44.493" height="38.571"/>
<polygon style="fill:#64798A;" points="139.078,322.758 139.078,284.192 183.571,284.192 "/>
<rect x="81.097" y="284.203" style="fill:#3A556A;" width="44.493" height="38.571"/>
<polygon style="fill:#64798A;" points="81.079,322.758 81.079,284.192 125.571,284.192 "/>
<rect x="139.081" y="228.907" style="fill:#3A556A;" width="44.493" height="38.571"/>
<polygon style="fill:#64798A;" points="139.078,267.472 139.078,228.906 183.571,228.906 "/>
<rect x="81.097" y="228.907" style="fill:#3A556A;" width="44.493" height="38.571"/>
<polygon style="fill:#64798A;" points="81.079,267.472 81.079,228.906 125.571,228.906 "/>
<rect x="139.081" y="341.888" style="fill:#3A556A;" width="44.493" height="38.571"/>
<polygon style="fill:#64798A;" points="139.078,380.441 139.078,341.875 183.571,341.875 "/>
<rect x="81.097" y="341.888" style="fill:#3A556A;" width="44.493" height="38.571"/>
<polygon style="fill:#64798A;" points="81.079,380.441 81.079,341.875 125.571,341.875 "/>
<rect x="204.915" y="322.773" style="fill:#DC8744;" width="165.679" height="88.619"/>
<g>
	<path style="fill:#EBF0F3;" d="M357.665,322.758h-45.29v-57.586c0-9.38,7.604-16.984,16.984-16.984h11.323   c9.38,0,16.984,7.604,16.984,16.984V322.758z"/>
	<path style="fill:#EBF0F3;" d="M281.319,322.758h-45.29v-94.005c0-9.38,7.604-16.984,16.984-16.984h11.323   c9.38,0,16.984,7.604,16.984,16.984V322.758z"/>
</g>
<g>
</g>
<g>
</g>
<g>
</g>
<g>
</g>
<g>
</g>
<g>
</g>
<g>
</g>
<g>
</g>
<g>
</g>
<g>
</g>
<g>
</g>
<g>
</g>
<g>
</g>
<g>
</g>
<g>
</g>
</svg>
