<?xml version="1.0" encoding="iso-8859-1"?>
<!-- Generator: Adobe Illustrator 19.0.0, SVG Export Plug-In . SVG Version: 6.00 Build 0)  -->
<svg xmlns="http://www.w3.org/2000/svg" xmlns:xlink="http://www.w3.org/1999/xlink" version="1.1" id="Capa_1" x="0px" y="0px" viewBox="0 0 426.667 426.667" style="enable-background:new 0 0 426.667 426.667;" xml:space="preserve">
<rect x="22.242" y="178.475" style="fill:#3EA69B;" width="382.635" height="197.888"/>
<rect x="306.475" y="196.693" style="fill:#D5D6DB;" width="89.126" height="10.283"/>
<polygon style="fill:#EBF0F3;" points="306.48,206.98 306.48,196.698 395.606,196.698 "/>
<rect x="306.475" y="213.504" style="fill:#D5D6DB;" width="89.126" height="10.283"/>
<polygon style="fill:#EBF0F3;" points="306.48,223.765 306.48,213.483 395.606,213.483 "/>
<rect x="306.475" y="230.268" style="fill:#D5D6DB;" width="89.126" height="10.283"/>
<polygon style="fill:#EBF0F3;" points="306.48,240.55 306.48,230.268 395.606,230.268 "/>
<rect x="306.475" y="247.053" style="fill:#D5D6DB;" width="89.126" height="10.283"/>
<polygon style="fill:#EBF0F3;" points="306.48,257.335 306.48,247.053 395.606,247.053 "/>
<rect x="306.475" y="263.838" style="fill:#D5D6DB;" width="89.126" height="10.283"/>
<polygon style="fill:#EBF0F3;" points="306.48,274.12 306.48,263.838 395.606,263.838 "/>
<rect x="306.475" y="280.619" style="fill:#D5D6DB;" width="89.126" height="10.283"/>
<polygon style="fill:#EBF0F3;" points="306.48,290.905 306.48,280.623 395.606,280.623 "/>
<rect x="306.475" y="297.387" style="fill:#D5D6DB;" width="89.126" height="10.283"/>
<polygon style="fill:#EBF0F3;" points="306.48,307.69 306.48,297.408 395.606,297.408 "/>
<rect x="306.475" y="314.197" style="fill:#D5D6DB;" width="89.126" height="10.283"/>
<polygon style="fill:#EBF0F3;" points="306.48,324.475 306.48,314.193 395.606,314.193 "/>
<rect x="306.475" y="330.965" style="fill:#D5D6DB;" width="89.126" height="10.283"/>
<polygon style="fill:#EBF0F3;" points="306.48,341.26 306.48,330.978 395.606,330.978 "/>
<rect x="130.368" y="37.598" style="fill:#44C4A1;" width="165.931" height="338.773"/>
<rect x="163.2" y="260.028" style="fill:#EBF0F3;" width="100.736" height="116.352"/>
<rect x="209.408" y="253.696" style="fill:#44C4A1;" width="8.576" height="122.654"/>
<g>
	<rect x="200.704" y="310.101" style="fill:#3A556A;" width="4.028" height="20.339"/>
	<rect x="223.147" y="310.101" style="fill:#3A556A;" width="4.028" height="20.339"/>
</g>
<g>
	<rect y="376.363" style="fill:#CE412D;" width="426.667" height="12.706"/>
	<rect x="206.251" y="49.493" style="fill:#CE412D;" width="14.579" height="65.664"/>
	<rect x="180.736" y="75.038" style="fill:#CE412D;" width="65.664" height="14.579"/>
</g>
<rect x="31.834" y="196.693" style="fill:#D5D6DB;" width="89.126" height="10.283"/>
<polygon style="fill:#EBF0F3;" points="31.833,206.98 31.833,196.698 120.959,196.698 "/>
<rect x="31.834" y="213.504" style="fill:#D5D6DB;" width="89.126" height="10.283"/>
<polygon style="fill:#EBF0F3;" points="31.833,223.765 31.833,213.483 120.959,213.483 "/>
<rect x="31.834" y="230.268" style="fill:#D5D6DB;" width="89.126" height="10.283"/>
<polygon style="fill:#EBF0F3;" points="31.833,240.55 31.833,230.268 120.959,230.268 "/>
<rect x="31.834" y="247.053" style="fill:#D5D6DB;" width="89.126" height="10.283"/>
<polygon style="fill:#EBF0F3;" points="31.833,257.335 31.833,247.053 120.959,247.053 "/>
<rect x="31.834" y="263.838" style="fill:#D5D6DB;" width="89.126" height="10.283"/>
<polygon style="fill:#EBF0F3;" points="31.833,274.12 31.833,263.838 120.959,263.838 "/>
<rect x="31.834" y="280.619" style="fill:#D5D6DB;" width="89.126" height="10.283"/>
<polygon style="fill:#EBF0F3;" points="31.833,290.905 31.833,280.623 120.959,280.623 "/>
<rect x="31.834" y="297.387" style="fill:#D5D6DB;" width="89.126" height="10.283"/>
<polygon style="fill:#EBF0F3;" points="31.833,307.69 31.833,297.408 120.959,297.408 "/>
<rect x="31.834" y="314.197" style="fill:#D5D6DB;" width="89.126" height="10.283"/>
<polygon style="fill:#EBF0F3;" points="31.833,324.475 31.833,314.193 120.959,314.193 "/>
<rect x="31.834" y="330.965" style="fill:#D5D6DB;" width="89.126" height="10.283"/>
<polygon style="fill:#EBF0F3;" points="31.833,341.26 31.833,330.978 120.959,330.978 "/>
<rect x="143.258" y="136.363" style="fill:#3A556A;" width="140.151" height="16.171"/>
<polygon style="fill:#64798A;" points="143.259,152.532 143.259,136.362 283.408,136.362 "/>
<rect x="143.258" y="160.593" style="fill:#3A556A;" width="140.151" height="16.171"/>
<polygon style="fill:#64798A;" points="143.259,176.761 143.259,160.591 283.408,160.591 "/>
<rect x="143.258" y="184.832" style="fill:#3A556A;" width="140.151" height="16.171"/>
<polygon style="fill:#64798A;" points="143.259,200.99 143.259,184.821 283.408,184.821 "/>
<rect x="143.258" y="209.05" style="fill:#3A556A;" width="140.151" height="16.171"/>
<polygon style="fill:#64798A;" points="143.259,225.219 143.259,209.05 283.408,209.05 "/>
<g>
</g>
<g>
</g>
<g>
</g>
<g>
</g>
<g>
</g>
<g>
</g>
<g>
</g>
<g>
</g>
<g>
</g>
<g>
</g>
<g>
</g>
<g>
</g>
<g>
</g>
<g>
</g>
<g>
</g>
</svg>
