<?xml version="1.0" encoding="iso-8859-1"?>
<!-- Generator: Adobe Illustrator 19.0.0, SVG Export Plug-In . SVG Version: 6.00 Build 0)  -->
<svg xmlns="http://www.w3.org/2000/svg" xmlns:xlink="http://www.w3.org/1999/xlink" version="1.1" id="Capa_1" x="0px" y="0px" viewBox="0 0 426.645 426.645" style="enable-background:new 0 0 426.645 426.645;" xml:space="preserve">
<rect x="94.837" y="81.237" style="fill:#D5D6DB;" width="233.638" height="326.656"/>
<rect x="172.832" y="278.571" style="fill:#64798A;" width="81.877" height="129.323"/>
<rect x="211.317" y="278.571" style="fill:#3A556A;" width="4.881" height="129.323"/>
<rect x="276.678" y="96.277" style="fill:#2D93BA;" width="37.525" height="32.525"/>
<polygon style="fill:#27A2DB;" points="276.678,128.806 276.678,96.279 314.202,96.279 "/>
<rect x="220.606" y="96.277" style="fill:#2D93BA;" width="37.525" height="32.525"/>
<polygon style="fill:#27A2DB;" points="220.605,128.806 220.605,96.279 258.129,96.279 "/>
<rect x="164.533" y="96.277" style="fill:#2D93BA;" width="37.525" height="32.525"/>
<polygon style="fill:#27A2DB;" points="164.532,128.806 164.532,96.279 202.057,96.279 "/>
<rect x="108.461" y="96.277" style="fill:#2D93BA;" width="37.525" height="32.525"/>
<polygon style="fill:#27A2DB;" points="108.46,128.806 108.46,96.279 145.984,96.279 "/>
<rect x="276.998" y="141.696" style="fill:#2D93BA;" width="37.525" height="32.525"/>
<polygon style="fill:#27A2DB;" points="277,174.236 277,141.709 314.524,141.709 "/>
<rect x="220.926" y="141.696" style="fill:#2D93BA;" width="37.525" height="32.525"/>
<polygon style="fill:#27A2DB;" points="220.927,174.236 220.927,141.709 258.452,141.709 "/>
<rect x="164.853" y="141.696" style="fill:#2D93BA;" width="37.525" height="32.525"/>
<polygon style="fill:#27A2DB;" points="164.855,174.236 164.855,141.709 202.379,141.709 "/>
<rect x="108.781" y="141.696" style="fill:#2D93BA;" width="37.525" height="32.525"/>
<polygon style="fill:#27A2DB;" points="108.782,174.236 108.782,141.709 146.306,141.709 "/>
<rect x="277.323" y="187.14" style="fill:#2D93BA;" width="37.525" height="32.525"/>
<polygon style="fill:#27A2DB;" points="277.322,219.666 277.322,187.139 314.846,187.139 "/>
<rect x="221.25" y="187.14" style="fill:#2D93BA;" width="37.525" height="32.525"/>
<polygon style="fill:#27A2DB;" points="221.249,219.666 221.249,187.139 258.774,187.139 "/>
<rect x="165.178" y="187.14" style="fill:#2D93BA;" width="37.525" height="32.525"/>
<polygon style="fill:#27A2DB;" points="165.177,219.666 165.177,187.139 202.701,187.139 "/>
<rect x="109.105" y="187.14" style="fill:#2D93BA;" width="37.525" height="32.525"/>
<polygon style="fill:#27A2DB;" points="109.104,219.666 109.104,187.139 146.628,187.139 "/>
<rect x="277.664" y="232.576" style="fill:#2D93BA;" width="37.525" height="32.525"/>
<polygon style="fill:#27A2DB;" points="277.644,265.096 277.644,232.57 315.168,232.57 "/>
<rect x="276.998" y="278.571" style="fill:#2D93BA;" width="37.525" height="32.525"/>
<polygon style="fill:#27A2DB;" points="277,311.081 277,278.554 314.524,278.554 "/>
<rect x="276.341" y="324.523" style="fill:#2D93BA;" width="37.525" height="32.525"/>
<polygon style="fill:#27A2DB;" points="276.356,357.066 276.356,324.539 313.88,324.539 "/>
<rect x="221.57" y="232.576" style="fill:#2D93BA;" width="37.525" height="32.525"/>
<polygon style="fill:#27A2DB;" points="221.571,265.096 221.571,232.57 259.096,232.57 "/>
<rect x="165.498" y="232.576" style="fill:#2D93BA;" width="37.525" height="32.525"/>
<polygon style="fill:#27A2DB;" points="165.499,265.096 165.499,232.57 203.023,232.57 "/>
<rect x="109.425" y="232.576" style="fill:#2D93BA;" width="37.525" height="32.525"/>
<polygon style="fill:#27A2DB;" points="109.426,265.096 109.426,232.57 146.951,232.57 "/>
<g>
	<rect x="151.439" y="46.622" style="fill:#3A556A;" width="8.858" height="34.987"/>
	<rect x="265.675" y="46.622" style="fill:#3A556A;" width="8.858" height="34.987"/>
</g>
<rect x="126.487" style="fill:#64798A;" width="173.67" height="50.816"/>
<g>
	<path style="fill:#FCD462;" d="M158.644,6.598h7.233v32.403h-7.233V26.255h-12.885v12.746h-7.233V6.598h7.233v13.538h12.885V6.598z   "/>
	<path style="fill:#FCD462;" d="M201.108,34.526c-3.278,3.201-7.31,4.797-12.098,4.797c-4.791,0-8.826-1.595-12.101-4.797   c-3.275-3.196-4.911-7.173-4.911-11.937c0-4.759,1.636-8.736,4.911-11.937c3.275-3.196,7.31-4.797,12.101-4.797   c4.789,0,8.82,1.601,12.098,4.797c3.275,3.201,4.911,7.179,4.911,11.937C206.019,27.353,204.383,31.33,201.108,34.526z    M198.649,22.616c0-2.89-0.926-5.354-2.781-7.397c-1.855-2.038-4.133-3.059-6.837-3.059c-2.704,0-4.983,1.022-6.837,3.059   c-1.855,2.043-2.781,4.507-2.781,7.397s0.926,5.343,2.781,7.37c1.855,2.021,4.133,3.032,6.837,3.032   c2.704,0,4.983-1.011,6.837-3.032C197.723,27.959,198.649,25.506,198.649,22.616z"/>
	<path style="fill:#FCD462;" d="M224.977,12.859v26.142h-7.231V12.859h-9.178V6.598h25.587v6.261H224.977z"/>
	<path style="fill:#FCD462;" d="M262.804,6.598v6.441h-16.13v6.676h14.508v6.168h-14.508v6.72h16.641v6.397h-23.875V6.598H262.804z"/>
	<path style="fill:#FCD462;" d="M269.757,39.001V6.598h7.233v25.962h13.814v6.441H269.757z"/>
</g>
<rect id="SVGCleanerId_0" x="63.989" y="407.851" style="fill:#DC8744;" width="298.667" height="18.795"/>
<rect x="108.781" y="278.571" style="fill:#2D93BA;" width="37.525" height="32.525"/>
<polygon style="fill:#27A2DB;" points="108.782,311.081 108.782,278.554 146.306,278.554 "/>
<rect x="108.149" y="324.523" style="fill:#2D93BA;" width="37.525" height="32.525"/>
<polygon style="fill:#27A2DB;" points="108.138,357.066 108.138,324.539 145.662,324.539 "/>
<rect x="63.989" y="64.811" style="fill:#DC8744;" width="298.667" height="18.795"/>
<g>
	<rect id="SVGCleanerId_0_1_" x="63.989" y="407.851" style="fill:#DC8744;" width="298.667" height="18.795"/>
</g>
<g>
</g>
<g>
</g>
<g>
</g>
<g>
</g>
<g>
</g>
<g>
</g>
<g>
</g>
<g>
</g>
<g>
</g>
<g>
</g>
<g>
</g>
<g>
</g>
<g>
</g>
<g>
</g>
<g>
</g>
</svg>
