<?xml version="1.0" encoding="iso-8859-1"?>
<!-- Generator: Adobe Illustrator 19.0.0, SVG Export Plug-In . SVG Version: 6.00 Build 0)  -->
<svg xmlns="http://www.w3.org/2000/svg" xmlns:xlink="http://www.w3.org/1999/xlink" version="1.1" id="Capa_1" x="0px" y="0px" viewBox="0 0 426.667 426.667" style="enable-background:new 0 0 426.667 426.667;" xml:space="preserve">
<rect x="65.741" y="86.4" style="fill:#DC8744;" width="296.405" height="340.267"/>
<path style="fill:#D5D6DB;" d="M274.422,426.667H153.467V294.462c0-25.051,20.308-45.358,45.358-45.358h30.239  c25.051,0,45.358,20.308,45.358,45.358V426.667z"/>
<g>
	<path style="fill:#3A556A;" d="M335.564,182.098h-49.18v-59.979c0-10.185,8.257-18.442,18.442-18.442h12.295   c10.185,0,18.442,8.257,18.442,18.442V182.098z"/>
	<path style="fill:#3A556A;" d="M139.51,182.098h-49.18v-59.979c0-10.185,8.257-18.442,18.442-18.442h12.295   c10.185,0,18.442,8.257,18.442,18.442V182.098z"/>
	<rect x="102.613" y="339.2" style="fill:#3A556A;" width="24.589" height="87.454"/>
	<rect x="298.667" y="339.2" style="fill:#3A556A;" width="24.589" height="87.454"/>
	<rect x="211.951" y="249.088" style="fill:#3A556A;" width="3.989" height="177.566"/>
</g>
<rect x="64.512" y="67.789" style="fill:#D5D6DB;" width="297.643" height="18.607"/>
<rect x="64.512" style="fill:#3A556A;" width="297.643" height="67.789"/>
<g>
	<rect x="330.283" y="14.622" style="fill:#E1E6E9;" width="24.256" height="53.167"/>
	<rect x="293.419" y="14.622" style="fill:#E1E6E9;" width="24.256" height="53.167"/>
	<rect x="256.512" y="14.622" style="fill:#E1E6E9;" width="24.256" height="53.167"/>
	<rect x="219.648" y="14.622" style="fill:#E1E6E9;" width="24.256" height="53.167"/>
	<rect x="182.763" y="14.622" style="fill:#E1E6E9;" width="24.256" height="53.167"/>
	<rect x="145.877" y="14.622" style="fill:#E1E6E9;" width="24.256" height="53.167"/>
	<rect x="108.992" y="14.622" style="fill:#E1E6E9;" width="24.256" height="53.167"/>
	<rect x="72.107" y="14.622" style="fill:#E1E6E9;" width="24.256" height="53.167"/>
</g>
<g>
</g>
<g>
</g>
<g>
</g>
<g>
</g>
<g>
</g>
<g>
</g>
<g>
</g>
<g>
</g>
<g>
</g>
<g>
</g>
<g>
</g>
<g>
</g>
<g>
</g>
<g>
</g>
<g>
</g>
</svg>
