<?xml version="1.0" encoding="iso-8859-1"?>
<!-- Generator: Adobe Illustrator 19.0.0, SVG Export Plug-In . SVG Version: 6.00 Build 0)  -->
<svg xmlns="http://www.w3.org/2000/svg" xmlns:xlink="http://www.w3.org/1999/xlink" version="1.1" id="Capa_1" x="0px" y="0px" viewBox="0 0 426.667 426.667" style="enable-background:new 0 0 426.667 426.667;" xml:space="preserve">
<rect x="29.359" y="136.783" style="fill:#D5D6DB;" width="367.957" height="247.68"/>
<rect y="384.463" style="fill:#D15241;" width="426.667" height="27.524"/>
<g>
	<rect y="396.794" style="fill:#E56353;" width="426.667" height="15.202"/>
	<rect y="94.202" style="fill:#E56353;" width="422.613" height="42.586"/>
</g>
<rect x="171.221" y="267.002" style="fill:#D15241;" width="84.254" height="122.419"/>
<rect x="174.093" y="271.994" style="fill:#2D93BA;" width="78.477" height="112.465"/>
<polygon style="fill:#27A2DB;" points="174.094,384.462 174.094,271.998 252.572,271.998 "/>
<rect x="180.48" y="321.018" style="fill:#D15241;" width="4.267" height="24.179"/>
<rect x="324.779" y="156.7" style="fill:#2D93BA;" width="42.752" height="78.054"/>
<polygon style="fill:#27A2DB;" points="324.791,234.756 324.791,156.7 367.562,156.7 "/>
<g>
	<rect x="344.917" y="156.393" style="fill:#EBF0F3;" width="2.483" height="78.366"/>
	<rect x="324.779" y="175.311" style="fill:#EBF0F3;" width="42.752" height="3.721"/>
</g>
<rect x="60.245" y="156.7" style="fill:#2D93BA;" width="42.752" height="78.054"/>
<polygon style="fill:#27A2DB;" points="60.257,234.756 60.257,156.7 103.029,156.7 "/>
<g>
	<rect x="80.405" y="156.393" style="fill:#EBF0F3;" width="2.483" height="78.366"/>
	<rect x="60.245" y="175.311" style="fill:#EBF0F3;" width="42.752" height="3.721"/>
</g>
<rect x="324.215" y="251.245" style="fill:#2D93BA;" width="42.752" height="78.054"/>
<polygon style="fill:#27A2DB;" points="324.214,329.299 324.214,251.244 366.985,251.244 "/>
<g>
	<rect x="344.363" y="250.938" style="fill:#EBF0F3;" width="2.483" height="78.366"/>
	<rect x="324.215" y="269.86" style="fill:#EBF0F3;" width="42.752" height="3.721"/>
</g>
<rect x="59.682" y="251.245" style="fill:#2D93BA;" width="42.752" height="78.054"/>
<polygon style="fill:#27A2DB;" points="59.68,329.299 59.68,251.244 102.452,251.244 "/>
<g>
	<rect x="79.825" y="250.938" style="fill:#EBF0F3;" width="2.483" height="78.366"/>
	<rect x="59.682" y="269.86" style="fill:#EBF0F3;" width="42.752" height="3.721"/>
</g>
<g>
	<polygon style="fill:#64798A;" points="215.01,150.182 224.669,179.909 255.925,179.909 230.638,198.281 240.297,228.007    215.01,209.635 189.723,228.007 199.381,198.281 174.094,179.909 205.351,179.909  "/>
	<rect x="89.139" y="14.671" style="fill:#64798A;" width="227.541" height="49.779"/>
	<rect x="117.585" y="64.463" style="fill:#64798A;" width="17.779" height="29.747"/>
	<rect x="271.915" y="64.463" style="fill:#64798A;" width="17.779" height="29.747"/>
</g>
<g>
	<path style="fill:#FCD462;" d="M146.852,25.314c2.072,1.761,3.111,4.472,3.111,8.122c0,3.656-1.067,6.328-3.194,8.022   c-2.133,1.689-5.383,2.539-9.756,2.539h-3.939v8.25h-6.6V22.67h10.456C141.469,22.67,144.775,23.547,146.852,25.314z    M142.008,36.947c0.789-0.889,1.183-2.183,1.183-3.889c0-1.711-0.517-2.922-1.544-3.639c-1.033-0.722-2.633-1.083-4.806-1.083   h-3.767v9.944h4.444C139.719,38.281,141.213,37.836,142.008,36.947z"/>
	<path style="fill:#FCD462;" d="M180.008,48.164c-2.989,2.922-6.672,4.378-11.044,4.378s-8.056-1.456-11.044-4.378   c-2.994-2.922-4.489-6.55-4.489-10.894s1.494-7.978,4.489-10.9c2.989-2.917,6.672-4.378,11.044-4.378s8.056,1.461,11.044,4.378   c2.989,2.922,4.483,6.556,4.483,10.9S182.997,45.242,180.008,48.164z M177.763,37.286c0-2.633-0.844-4.883-2.539-6.75   c-1.689-1.861-3.772-2.789-6.239-2.789c-2.472,0-4.55,0.928-6.244,2.789c-1.694,1.867-2.539,4.117-2.539,6.75   c0,2.639,0.844,4.883,2.539,6.728c1.694,1.85,3.772,2.772,6.244,2.772c2.467,0,4.55-0.922,6.239-2.772   C176.919,42.17,177.763,39.925,177.763,37.286z"/>
	<path style="fill:#FCD462;" d="M190.075,52.247V22.67h6.6v23.694h12.611v5.883H190.075z"/>
	<path style="fill:#FCD462;" d="M214.113,22.67h6.6v29.578h-6.6V22.67z"/>
	<path style="fill:#FCD462;" d="M241.575,46.408c3.244,0,5.894-1.283,7.956-3.85l4.233,4.356c-3.356,3.783-7.317,5.672-11.872,5.672   c-4.556,0-8.306-1.439-11.256-4.317c-2.95-2.878-4.422-6.511-4.422-10.894c0-4.389,1.506-8.05,4.506-10.983   c3.006-2.933,6.683-4.4,11.028-4.4c4.85,0,8.911,1.844,12.183,5.544l-4.1,4.65c-2.089-2.594-4.683-3.889-7.789-3.889   c-2.483,0-4.606,0.811-6.367,2.433c-1.767,1.622-2.644,3.806-2.644,6.556s0.828,4.961,2.494,6.622   C237.186,45.575,239.208,46.408,241.575,46.408z"/>
	<path style="fill:#FCD462;" d="M280.297,22.67v5.878h-14.728v6.094h13.25v5.628h-13.25v6.139h15.194v5.839h-21.794V22.67H280.297z"/>
</g>
<g>
</g>
<g>
</g>
<g>
</g>
<g>
</g>
<g>
</g>
<g>
</g>
<g>
</g>
<g>
</g>
<g>
</g>
<g>
</g>
<g>
</g>
<g>
</g>
<g>
</g>
<g>
</g>
<g>
</g>
</svg>
