<?xml version="1.0" encoding="iso-8859-1"?>
<!-- Generator: Adobe Illustrator 19.0.0, SVG Export Plug-In . SVG Version: 6.00 Build 0)  -->
<svg xmlns="http://www.w3.org/2000/svg" xmlns:xlink="http://www.w3.org/1999/xlink" version="1.1" id="Capa_1" x="0px" y="0px" viewBox="0 0 426.667 426.667" style="enable-background:new 0 0 426.667 426.667;" xml:space="preserve">
<rect x="31.467" y="206.763" style="fill:#F6C358;" width="363.733" height="219.904"/>
<polygon style="fill:#DC8744;" points="395.2,186.576 211.31,138.078 31.467,186.576 31.467,206.783 395.2,206.783 "/>
<g>
	<rect x="137.557" y="146.005" style="fill:#FCD462;" width="151.556" height="280.64"/>
	<rect x="155.008" y="51.669" style="fill:#FCD462;" width="117.431" height="80.448"/>
</g>
<polygon style="fill:#DC8744;" points="272.44,51.669 213.725,0 155.01,51.669 "/>
<rect x="145.621" y="51.669" style="fill:#F6C358;" width="135.437" height="9.993"/>
<rect x="120.363" y="132.117" style="fill:#E56353;" width="185.907" height="13.909"/>
<rect x="162.816" y="329.856" style="fill:#64798A;" width="101.039" height="96.806"/>
<g>
	<rect x="209.152" y="329.856" style="fill:#3A556A;" width="8.576" height="96.806"/>
	<rect x="200.452" y="371.541" style="fill:#3A556A;" width="4.041" height="16.922"/>
	<rect x="222.933" y="371.541" style="fill:#3A556A;" width="4.041" height="16.922"/>
</g>
<rect x="219.776" y="160.623" style="fill:#2D93BA;" width="55.936" height="48.499"/>
<polygon style="fill:#27A2DB;" points="219.774,209.12 219.774,160.623 275.724,160.623 "/>
<rect x="185.344" y="73.472" style="fill:#2D93BA;" width="55.936" height="48.499"/>
<polygon style="fill:#27A2DB;" points="185.359,121.976 185.359,73.478 241.308,73.478 "/>
<rect x="151.339" y="160.623" style="fill:#2D93BA;" width="55.936" height="48.499"/>
<polygon style="fill:#27A2DB;" points="151.322,209.12 151.322,160.623 207.271,160.623 "/>
<rect x="219.989" y="227.328" style="fill:#2D93BA;" width="55.936" height="48.499"/>
<polygon style="fill:#27A2DB;" points="219.976,275.805 219.976,227.307 275.926,227.307 "/>
<rect x="151.522" y="227.328" style="fill:#2D93BA;" width="55.936" height="48.499"/>
<polygon style="fill:#27A2DB;" points="151.524,275.805 151.524,227.307 207.473,227.307 "/>
<rect x="88.93" y="230.571" style="fill:#2D93BA;" width="39.548" height="34.261"/>
<polygon style="fill:#27A2DB;" points="88.93,264.851 88.93,230.57 128.479,230.57 "/>
<rect x="40.542" y="230.571" style="fill:#2D93BA;" width="39.548" height="34.261"/>
<polygon style="fill:#27A2DB;" points="40.543,264.851 40.543,230.57 80.092,230.57 "/>
<rect x="40.542" y="274.261" style="fill:#2D93BA;" width="39.548" height="34.261"/>
<polygon style="fill:#27A2DB;" points="40.543,308.55 40.543,274.268 80.092,274.268 "/>
<rect x="40.542" y="317.952" style="fill:#2D93BA;" width="39.548" height="34.261"/>
<polygon style="fill:#27A2DB;" points="40.543,352.248 40.543,317.967 80.092,317.967 "/>
<rect x="40.542" y="361.685" style="fill:#2D93BA;" width="39.548" height="34.261"/>
<polygon style="fill:#27A2DB;" points="40.543,395.947 40.543,361.665 80.092,361.665 "/>
<rect x="88.93" y="274.261" style="fill:#2D93BA;" width="39.548" height="34.261"/>
<polygon style="fill:#27A2DB;" points="88.93,308.55 88.93,274.268 128.479,274.268 "/>
<rect x="88.93" y="317.952" style="fill:#2D93BA;" width="39.548" height="34.261"/>
<polygon style="fill:#27A2DB;" points="88.93,352.248 88.93,317.967 128.479,317.967 "/>
<rect x="88.93" y="361.685" style="fill:#2D93BA;" width="39.548" height="34.261"/>
<polygon style="fill:#27A2DB;" points="88.93,395.947 88.93,361.665 128.479,361.665 "/>
<rect x="346.581" y="230.571" style="fill:#2D93BA;" width="39.548" height="34.261"/>
<polygon style="fill:#27A2DB;" points="346.575,264.851 346.575,230.57 386.124,230.57 "/>
<rect x="298.189" y="230.571" style="fill:#2D93BA;" width="39.548" height="34.261"/>
<polygon style="fill:#27A2DB;" points="298.187,264.851 298.187,230.57 337.736,230.57 "/>
<rect x="298.189" y="274.261" style="fill:#2D93BA;" width="39.548" height="34.261"/>
<polygon style="fill:#27A2DB;" points="298.187,308.55 298.187,274.268 337.736,274.268 "/>
<rect x="298.189" y="317.952" style="fill:#2D93BA;" width="39.548" height="34.261"/>
<polygon style="fill:#27A2DB;" points="298.187,352.248 298.187,317.967 337.736,317.967 "/>
<rect x="298.189" y="361.685" style="fill:#2D93BA;" width="39.548" height="34.261"/>
<polygon style="fill:#27A2DB;" points="298.187,395.947 298.187,361.665 337.736,361.665 "/>
<rect x="346.581" y="274.261" style="fill:#2D93BA;" width="39.548" height="34.261"/>
<polygon style="fill:#27A2DB;" points="346.575,308.55 346.575,274.268 386.124,274.268 "/>
<rect x="346.581" y="317.952" style="fill:#2D93BA;" width="39.548" height="34.261"/>
<polygon style="fill:#27A2DB;" points="346.575,352.248 346.575,317.967 386.124,317.967 "/>
<rect x="346.581" y="361.685" style="fill:#2D93BA;" width="39.548" height="34.261"/>
<polygon style="fill:#27A2DB;" points="346.575,395.947 346.575,361.665 386.124,361.665 "/>
<g>
	<path style="fill:#2F4859;" d="M163.651,294.258c-0.518,0.429-0.778,0.995-0.778,1.696c0,0.704,0.317,1.264,0.95,1.681   c0.636,0.414,2.102,0.906,4.399,1.471c2.297,0.565,4.082,1.415,5.352,2.546c1.27,1.131,1.903,2.782,1.903,4.952   s-0.814,3.931-2.439,5.281c-1.628,1.35-3.771,2.028-6.426,2.028c-3.833,0-7.285-1.421-10.354-4.26l3.221-3.949   c2.611,2.285,5.023,3.428,7.237,3.428c0.995,0,1.773-0.213,2.338-0.639c0.565-0.429,0.85-1.006,0.85-1.732   c0-0.728-0.302-1.305-0.9-1.732c-0.601-0.429-1.791-0.861-3.567-1.299c-2.818-0.669-4.878-1.542-6.184-2.614   c-1.305-1.074-1.957-2.759-1.957-5.056s0.826-4.07,2.478-5.316c1.649-1.246,3.709-1.871,6.181-1.871   c1.616,0,3.232,0.278,4.849,0.832c1.616,0.554,3.025,1.338,4.224,2.353l-2.735,3.949c-2.102-1.593-4.271-2.389-6.509-2.389   C164.879,293.618,164.169,293.832,163.651,294.258z"/>
	<path style="fill:#2F4859;" d="M188.497,309.307c1.732,0,3.292-0.867,4.677-2.599l3.081,3.463c-2.404,2.492-5,3.742-7.794,3.742   c-2.791,0-5.153-0.885-7.08-2.649c-1.927-1.767-2.892-4.076-2.892-6.927c0-2.851,0.974-5.171,2.928-6.962   c1.951-1.788,4.263-2.685,6.941-2.685c1.341,0,2.697,0.278,4.07,0.832c1.373,0.554,2.581,1.373,3.62,2.46l-2.703,3.531   c-0.601-0.713-1.332-1.27-2.199-1.661c-0.864-0.394-1.726-0.589-2.581-0.589c-1.362,0-2.534,0.444-3.514,1.332   c-0.983,0.891-1.471,2.125-1.471,3.706c0,1.581,0.488,2.812,1.471,3.688C186.032,308.869,187.183,309.307,188.497,309.307z"/>
	<path style="fill:#2F4859;" d="M204.914,303.591v10.044h-5.195v-25.696h5.195v9.144c1.569-1.592,3.33-2.392,5.281-2.392   s3.594,0.693,4.934,2.078c1.338,1.385,2.007,3.232,2.007,5.541v11.325h-5.192v-10.183c0-2.862-1.051-4.292-3.152-4.292   c-1.039,0-1.945,0.376-2.72,1.125C205.299,301.033,204.914,302.138,204.914,303.591z"/>
	<path style="fill:#2F4859;" d="M240.479,304.319c0,2.7-0.935,4.976-2.806,6.823c-1.868,1.847-4.218,2.771-7.048,2.771   c-2.827,0-5.177-0.924-7.045-2.771c-1.871-1.847-2.806-4.123-2.806-6.823c0-2.703,0.935-4.982,2.806-6.841   c1.868-1.859,4.218-2.788,7.045-2.788c2.83,0,5.18,0.929,7.048,2.788C239.544,299.337,240.479,301.617,240.479,304.319z    M226.004,304.319c0,1.524,0.432,2.765,1.296,3.724c0.867,0.956,1.974,1.436,3.324,1.436c1.353,0,2.46-0.48,3.327-1.436   c0.864-0.959,1.296-2.199,1.296-3.724s-0.432-2.771-1.296-3.742c-0.867-0.968-1.974-1.453-3.327-1.453   c-1.35,0-2.457,0.485-3.324,1.453C226.437,301.549,226.004,302.795,226.004,304.319z"/>
	<path style="fill:#2F4859;" d="M262.952,304.319c0,2.7-0.935,4.976-2.806,6.823c-1.868,1.847-4.218,2.771-7.048,2.771   c-2.827,0-5.177-0.924-7.045-2.771c-1.871-1.847-2.806-4.123-2.806-6.823c0-2.703,0.935-4.982,2.806-6.841   c1.868-1.859,4.218-2.788,7.045-2.788c2.83,0,5.18,0.929,7.048,2.788C262.017,299.337,262.952,301.617,262.952,304.319z    M248.477,304.319c0,1.524,0.432,2.765,1.297,3.724c0.867,0.956,1.974,1.436,3.324,1.436c1.353,0,2.46-0.48,3.327-1.436   c0.864-0.959,1.297-2.199,1.297-3.724s-0.432-2.771-1.297-3.742c-0.867-0.968-1.974-1.453-3.327-1.453   c-1.35,0-2.457,0.485-3.324,1.453C248.909,301.549,248.477,302.795,248.477,304.319z"/>
	<path style="fill:#2F4859;" d="M271.992,313.634h-5.195v-25.696h5.195V313.634z"/>
</g>
<g>
</g>
<g>
</g>
<g>
</g>
<g>
</g>
<g>
</g>
<g>
</g>
<g>
</g>
<g>
</g>
<g>
</g>
<g>
</g>
<g>
</g>
<g>
</g>
<g>
</g>
<g>
</g>
<g>
</g>
</svg>
