<?xml version="1.0" encoding="iso-8859-1"?>
<!-- Generator: Adobe Illustrator 19.0.0, SVG Export Plug-In . SVG Version: 6.00 Build 0)  -->
<svg xmlns="http://www.w3.org/2000/svg" xmlns:xlink="http://www.w3.org/1999/xlink" version="1.1" id="Capa_1" x="0px" y="0px" viewBox="0 0 426.667 426.667" style="enable-background:new 0 0 426.667 426.667;" xml:space="preserve">
<rect x="99.037" y="93.397" style="fill:#FCD462;" width="225.404" height="315.14"/>
<polygon style="fill:#44C4A1;" points="357.411,93.396 202.472,0 69.271,93.396 "/>
<rect x="174.284" y="344.661" style="fill:#64798A;" width="78.98" height="63.885"/>
<rect x="211.421" y="344.661" style="fill:#3A556A;" width="4.71" height="63.885"/>
<rect x="274.482" y="107.947" style="fill:#2D93BA;" width="36.203" height="31.381"/>
<polygon style="fill:#27A2DB;" points="274.462,139.306 274.462,107.926 310.664,107.926 "/>
<rect x="220.381" y="107.947" style="fill:#2D93BA;" width="36.203" height="31.381"/>
<polygon style="fill:#27A2DB;" points="220.367,139.306 220.367,107.926 256.568,107.926 "/>
<rect x="166.271" y="107.947" style="fill:#2D93BA;" width="36.203" height="31.381"/>
<polygon style="fill:#27A2DB;" points="166.271,139.306 166.271,107.926 202.472,107.926 "/>
<rect x="112.178" y="107.947" style="fill:#2D93BA;" width="36.203" height="31.381"/>
<polygon style="fill:#27A2DB;" points="112.175,139.306 112.175,107.926 148.376,107.926 "/>
<rect x="274.781" y="151.757" style="fill:#2D93BA;" width="36.203" height="31.381"/>
<polygon style="fill:#27A2DB;" points="274.773,183.135 274.773,151.755 310.975,151.755 "/>
<rect x="220.675" y="151.757" style="fill:#2D93BA;" width="36.203" height="31.381"/>
<polygon style="fill:#27A2DB;" points="220.677,183.135 220.677,151.755 256.879,151.755 "/>
<rect x="166.578" y="151.757" style="fill:#2D93BA;" width="36.203" height="31.381"/>
<polygon style="fill:#27A2DB;" points="166.581,183.135 166.581,151.755 202.783,151.755 "/>
<rect x="112.477" y="151.757" style="fill:#2D93BA;" width="36.203" height="31.381"/>
<polygon style="fill:#27A2DB;" points="112.486,183.135 112.486,151.755 148.687,151.755 "/>
<rect x="275.08" y="244.139" style="fill:#2D93BA;" width="36.203" height="31.381"/>
<polygon style="fill:#27A2DB;" points="275.084,275.538 275.084,244.158 311.285,244.158 "/>
<rect x="220.987" y="195.584" style="fill:#2D93BA;" width="36.203" height="31.381"/>
<polygon style="fill:#27A2DB;" points="220.988,226.964 220.988,195.584 257.19,195.584 "/>
<rect x="166.877" y="195.584" style="fill:#2D93BA;" width="36.203" height="31.381"/>
<polygon style="fill:#27A2DB;" points="166.892,226.964 166.892,195.584 203.094,195.584 "/>
<rect x="112.797" y="244.139" style="fill:#2D93BA;" width="36.203" height="31.381"/>
<polygon style="fill:#27A2DB;" points="112.796,275.538 112.796,244.158 148.998,244.158 "/>
<rect x="275.378" y="288" style="fill:#2D93BA;" width="36.203" height="31.381"/>
<polygon style="fill:#27A2DB;" points="275.395,319.367 275.395,287.987 311.596,287.987 "/>
<rect x="113.108" y="288" style="fill:#2D93BA;" width="36.203" height="31.381"/>
<polygon style="fill:#27A2DB;" points="113.107,319.367 113.107,287.987 149.309,287.987 "/>
<rect x="69.256" y="408.533" style="fill:#44C4A1;" width="288.128" height="18.133"/>
<polygon style="fill:#FCD462;" points="170.015,314.017 157.501,330.575 265.337,330.575 254.723,314.017 "/>
<path style="fill:#F6C358;" d="M157.501,330.575v5.307c0,3.165,2.566,5.731,5.731,5.731h96.373c3.165,0,5.731-2.566,5.731-5.731  v-5.307H157.501z"/>
<path style="fill:#E56353;" d="M259.778,314.017l8.491,16.557v5.307c0,3.165-2.566,5.731-5.731,5.731l0,0  c-3.165,0-5.731-2.566-5.731-5.731v-5.307l-5.095-16.557H259.778z"/>
<path style="fill:#E1E6E9;" d="M251.712,314.017l5.415,16.557v5.307c0,3.165-2.566,5.731-5.731,5.731l0,0  c-3.165,0-5.731-2.566-5.731-5.731v-5.307l-1.71-16.557H251.712z"/>
<path style="fill:#E56353;" d="M243.953,314.017l2.083,16.557v5.307c0,3.165-2.566,5.731-5.731,5.731l0,0  c-3.165,0-5.731-2.566-5.731-5.731v-5.307l0.863-16.557H243.953z"/>
<path style="fill:#E1E6E9;" d="M235.436,314.017l-0.659,16.557v5.307c0,3.165-2.566,5.731-5.731,5.731h0  c-3.165,0-5.731-2.566-5.731-5.731v-5.307l4.532-16.557H235.436z"/>
<path style="fill:#E56353;" d="M227.846,314.017l-4.532,16.557l-0.373,5.307c0,3.165-2.566,5.731-5.731,5.731h0  c-3.165,0-5.731-2.566-5.731-5.731v-5.307l7.261-16.557H227.846z"/>
<path style="fill:#E1E6E9;" d="M218.739,314.017l-7.267,16.557v5.307c0,3.165-2.566,5.731-5.731,5.731h0  c-3.165,0-5.731-2.566-5.731-5.731v-5.307l10.128-16.557H218.739z"/>
<path style="fill:#E56353;" d="M210.137,314.017l-9.628,16.557v5.307c0,3.165-2.566,5.731-5.731,5.731h0  c-3.165,0-5.731-2.566-5.731-5.731v-5.307l10.963-16.557H210.137z"/>
<path style="fill:#E1E6E9;" d="M200.009,314.017l-10.8,16.557v5.307c0,3.165-2.566,5.731-5.731,5.731h0  c-3.165,0-5.731-2.566-5.731-5.731v-5.307l11.983-16.557H200.009z"/>
<path style="fill:#E56353;" d="M189.966,314.017l-11.889,16.557v5.307c0,3.165-2.566,5.731-5.731,5.731h0  c-3.165,0-5.731-2.566-5.731-5.731v-5.307l15.285-16.557H189.966z"/>
<path style="fill:#E1E6E9;" d="M181.899,314.017l-15.245,16.557v5.307c0,3.165-2.566,5.731-5.731,5.731l0,0  c-3.165,0-5.731-2.566-5.731-5.731v-5.307l17.756-16.557H181.899z"/>
<g>
	<rect x="219.016" y="371.499" style="fill:#3A556A;" width="3.925" height="13.043"/>
	<rect x="204.479" y="371.499" style="fill:#3A556A;" width="3.925" height="13.043"/>
</g>
<polygon style="fill:#FCD462;" points="325.273,97.149 203.164,19.79 98.187,97.149 "/>
<g>
	<path style="fill:#3A556A;" d="M163.555,260.356c-0.606,0.617-0.912,1.434-0.912,2.446c0,1.017,0.369,1.824,1.112,2.425   c0.738,0.596,2.451,1.307,5.134,2.119c2.683,0.817,4.765,2.04,6.246,3.674c1.481,1.629,2.224,4.011,2.224,7.142   c0,3.126-0.954,5.666-2.851,7.616c-1.897,1.945-4.401,2.92-7.5,2.92c-4.47,0-8.502-2.05-12.086-6.146l3.758-5.692   c3.046,3.299,5.861,4.944,8.449,4.944c1.16,0,2.071-0.306,2.73-0.922c0.659-0.617,0.991-1.449,0.991-2.498   c0-1.049-0.353-1.876-1.049-2.493c-0.706-0.617-2.092-1.244-4.164-1.876c-3.289-0.965-5.698-2.219-7.216-3.769   c-1.523-1.55-2.287-3.979-2.287-7.289c0-3.315,0.965-5.871,2.894-7.669c1.924-1.797,4.327-2.693,7.216-2.693   c1.882,0,3.769,0.401,5.655,1.196c1.887,0.801,3.531,1.934,4.933,3.394l-3.194,5.698c-2.451-2.298-4.986-3.447-7.6-3.447   C164.989,259.433,164.161,259.739,163.555,260.356z"/>
	<path style="fill:#3A556A;" d="M200.276,253.388h6.309v34.908h-6.309v-13.73h-11.237v13.73h-6.304v-34.908h6.304v14.584h11.237   V253.388z"/>
	<path style="fill:#3A556A;" d="M237.302,283.478c-2.857,3.442-6.372,5.165-10.547,5.165c-4.18,0-7.695-1.724-10.552-5.165   c-2.857-3.447-4.285-7.732-4.285-12.86c0-5.128,1.428-9.413,4.285-12.86c2.857-3.442,6.372-5.165,10.552-5.165   c4.174,0,7.69,1.724,10.547,5.165c2.857,3.447,4.285,7.732,4.285,12.86C241.587,275.746,240.159,280.031,237.302,283.478z    M235.162,270.644c0-3.115-0.812-5.771-2.425-7.964c-1.618-2.198-3.605-3.299-5.966-3.299c-2.356,0-4.343,1.102-5.961,3.299   c-1.618,2.193-2.425,4.849-2.425,7.964c0,3.11,0.806,5.761,2.425,7.938c1.618,2.182,3.605,3.273,5.961,3.273   c2.361,0,4.348-1.091,5.966-3.273C234.351,276.405,235.162,273.754,235.162,270.644z"/>
	<path style="fill:#3A556A;" d="M266.386,256.513c1.982,2.077,2.973,5.276,2.973,9.587s-1.017,7.463-3.052,9.461   c-2.034,1.998-5.139,2.994-9.319,2.994h-3.758v9.74h-6.304v-34.908h9.983C261.247,253.388,264.409,254.431,266.386,256.513z    M261.758,270.243c0.754-1.049,1.133-2.577,1.133-4.596c0-2.013-0.49-3.442-1.476-4.29c-0.986-0.854-2.514-1.276-4.585-1.276h-3.6   v11.733h4.243C259.576,271.814,261.005,271.292,261.758,270.243z"/>
</g>
<g>
</g>
<g>
</g>
<g>
</g>
<g>
</g>
<g>
</g>
<g>
</g>
<g>
</g>
<g>
</g>
<g>
</g>
<g>
</g>
<g>
</g>
<g>
</g>
<g>
</g>
<g>
</g>
<g>
</g>
</svg>
