<?xml version="1.0" encoding="iso-8859-1"?>
<!-- Generator: Adobe Illustrator 19.0.0, SVG Export Plug-In . SVG Version: 6.00 Build 0)  -->
<svg xmlns="http://www.w3.org/2000/svg" xmlns:xlink="http://www.w3.org/1999/xlink" version="1.1" id="Capa_1" x="0px" y="0px" viewBox="0 0 426.667 426.667" style="enable-background:new 0 0 426.667 426.667;" xml:space="preserve">
<path style="fill:#1C75A1;" d="M85.959,314.041H22.963c-6.203,0-11.25-5.047-11.25-11.25c0-6.202,5.047-11.249,11.25-11.249h1.146  v-44.155H5.283c-2.173,0-3.934-1.761-3.934-3.934c0-2.173,1.761-3.934,3.934-3.934h19.001c4.242,0,7.693,3.452,7.693,7.694v52.197  h-9.014c-1.865,0-3.382,1.517-3.382,3.381c0,1.866,1.517,3.382,3.382,3.382h62.995c2.173,0,3.934,1.761,3.934,3.934  C89.893,312.28,88.132,314.041,85.959,314.041z"/>
<path style="fill:#DC8744;" d="M49.854,305.027h20.692c2.942,0,5.454-2.126,5.94-5.028l6.88-41.101H37.034l6.88,41.101  C44.401,302.901,46.912,305.027,49.854,305.027z"/>
<path style="fill:#CE412D;" d="M2.663,247.213h18.877v-7.523H2.663c-1.471,0-2.663,1.192-2.663,2.663v2.197  C0,246.021,1.192,247.213,2.663,247.213z"/>
<g>
	<circle style="fill:#3A556A;" cx="36.442" cy="319.736" r="6.502"/>
	<circle style="fill:#3A556A;" cx="66.705" cy="319.736" r="6.502"/>
</g>
<polygon style="fill:#FCD462;" points="408.587,325.064 93.608,325.064 93.608,135.23 408.587,159.336 "/>
<path style="fill:#E56353;" d="M418.306,166.869L87.454,142.763c-6.03,0-10.919-4.889-10.919-10.919v-20.497  c0-6.03,4.889-10.919,10.919-10.919l330.852,24.106c4.618,0,8.361,3.743,8.361,8.361v25.613  C426.667,163.126,422.923,166.869,418.306,166.869z"/>
<polygon style="fill:#64798A;" points="408.587,183.442 93.608,159.336 93.608,142.763 408.587,166.869 "/>
<rect x="100.868" y="183.441" style="fill:#2D93BA;" width="41.894" height="123.904"/>
<polygon style="fill:#27A2DB;" points="100.87,307.351 100.87,183.442 142.766,183.442 "/>
<rect x="148.489" y="183.441" style="fill:#3A556A;" width="41.894" height="123.904"/>
<polygon style="fill:#64798A;" points="148.489,307.35 148.489,183.442 190.385,183.442 "/>
<rect x="151.71" y="235.904" style="fill:#EBF0F3;" width="4.77" height="18.078"/>
<rect x="208.35" y="194.74" style="fill:#2D93BA;" width="41.894" height="88.137"/>
<polygon style="fill:#27A2DB;" points="208.351,282.879 208.351,194.742 250.247,194.742 "/>
<rect x="279.936" y="194.74" style="fill:#2D93BA;" width="41.894" height="88.137"/>
<polygon style="fill:#27A2DB;" points="279.916,282.879 279.916,194.742 321.812,194.742 "/>
<rect x="351.488" y="194.74" style="fill:#2D93BA;" width="41.894" height="88.137"/>
<polygon style="fill:#27A2DB;" points="351.48,282.879 351.48,194.742 393.376,194.742 "/>
<g>
</g>
<g>
</g>
<g>
</g>
<g>
</g>
<g>
</g>
<g>
</g>
<g>
</g>
<g>
</g>
<g>
</g>
<g>
</g>
<g>
</g>
<g>
</g>
<g>
</g>
<g>
</g>
<g>
</g>
</svg>
