<?xml version="1.0" encoding="iso-8859-1"?>
<!-- Generator: Adobe Illustrator 19.0.0, SVG Export Plug-In . SVG Version: 6.00 Build 0)  -->
<svg version="1.1" id="Layer_1" xmlns="http://www.w3.org/2000/svg" xmlns:xlink="http://www.w3.org/1999/xlink" x="0px" y="0px"
	 viewBox="0 0 512 512" style="enable-background:new 0 0 512 512;" xml:space="preserve">
<path style="fill:#EE8A68;" d="M488.454,228.446H76.149v3.507c0,6.353,5.169,11.522,11.522,11.522h32.063
	c39.771,0,72.574,29.843,76.302,69.416l0.257,2.724h95.367l0.257-2.724c3.729-39.573,36.531-69.416,76.302-69.416
	c42.264,0,76.65,34.385,76.65,76.65c0,5.335-0.561,10.688-1.668,15.909l-0.768,3.629h46.023c1.934,0,3.507-1.573,3.507-3.507
	V231.953C491.961,230.02,490.387,228.446,488.454,228.446z M203.398,280.047c0-2.486,2.023-4.509,4.509-4.509h72.141
	c2.486,0,4.509,2.023,4.509,4.509s-2.023,4.509-4.509,4.509h-72.141C205.42,284.556,203.398,282.534,203.398,280.047z"/>
<path style="fill:#D67153;" d="M488.454,228.446h-27.54c-0.336,26.905-5.517,53.403-15.036,78.22
	c-0.402,2.618-0.803,5.236-1.237,7.847c0.135,1.856,0.227,3.722,0.227,5.611c0,5.335-0.561,10.688-1.668,15.909l-0.769,3.63h46.023
	c1.934,0,3.507-1.573,3.507-3.507V231.953C491.961,230.02,490.387,228.446,488.454,228.446z"/>
<path style="fill:#736F7B;" d="M380.744,219.429h71.139v-23.045h-51.601c-2.486,0-4.509-2.023-4.509-4.509
	c0-2.486,2.023-4.509,4.509-4.509h51.601v-3.507c0-6.353-5.169-11.522-11.522-11.522h-59.616V219.429z"/>
<path style="fill:#625D6B;" d="M368.219,252.493c-37.293,0-67.632,30.339-67.632,67.632s30.339,67.632,67.632,67.632
	s67.632-30.339,67.632-67.632S405.511,252.493,368.219,252.493z M399.833,307.647c1.812,0.224,3.335,1.527,3.801,3.343
	c0.767,2.968,1.156,6.043,1.156,9.137c0,20.165-16.406,36.571-36.571,36.571c-20.165,0-36.571-16.406-36.571-36.571
	s16.406-36.571,36.571-36.571c3.094,0,6.169,0.389,9.142,1.158c1.165,0.3,2.145,1.036,2.759,2.073
	c0.428,0.723,0.627,1.533,0.616,2.349C389.395,292.361,396.343,299.118,399.833,307.647z"/>
<path style="fill:#EE8A68;" d="M381.378,124.243H124.995c-7.354,0-14.273,2.868-19.479,8.075l-87.112,87.111h267.788
	L381.378,124.243z M292.569,143.781c0,1.201-0.469,2.333-1.322,3.185l-56.117,56.116c-0.843,0.849-1.971,1.317-3.177,1.317
	c-1.206,0-2.335-0.468-3.185-1.325c-0.853-0.852-1.322-1.983-1.322-3.184c0-1.201,0.469-2.333,1.322-3.185l56.109-56.109
	c0.852-0.853,1.983-1.322,3.184-1.322c1.201,0,2.333,0.469,3.185,1.322C292.1,141.448,292.569,142.58,292.569,143.781z
	 M252.49,143.781c0,1.201-0.469,2.333-1.322,3.185l-56.117,56.116c-0.843,0.849-1.971,1.317-3.177,1.317
	c-1.206,0-2.335-0.468-3.185-1.325c-0.853-0.852-1.322-1.983-1.322-3.184c0-1.201,0.469-2.333,1.322-3.185l56.11-56.109
	c0.852-0.853,1.983-1.322,3.184-1.322s2.333,0.469,3.185,1.322C252.021,141.448,252.49,142.58,252.49,143.781z M212.412,143.781
	c0,1.201-0.469,2.333-1.322,3.185l-56.117,56.116c-0.843,0.849-1.971,1.317-3.177,1.317s-2.335-0.468-3.185-1.325
	c-0.853-0.852-1.322-1.983-1.322-3.184c0-1.201,0.469-2.333,1.322-3.185l56.11-56.109c0.852-0.853,1.983-1.322,3.184-1.322
	c1.201,0,2.333,0.469,3.185,1.322C211.943,141.448,212.412,142.58,212.412,143.781z M172.334,143.781
	c0,1.201-0.469,2.333-1.322,3.185l-56.117,56.116c-0.843,0.849-1.971,1.317-3.177,1.317c-1.206,0-2.335-0.468-3.185-1.325
	c-0.853-0.852-1.322-1.983-1.322-3.184c0-1.201,0.469-2.333,1.322-3.185l56.11-56.109c0.852-0.853,1.983-1.322,3.184-1.322
	c1.201,0,2.333,0.469,3.185,1.322S172.334,142.58,172.334,143.781z M132.256,143.781c0,1.201-0.469,2.333-1.322,3.185
	l-56.117,56.116c-0.843,0.85-1.971,1.317-3.176,1.317c-1.206,0-2.335-0.468-3.185-1.325c-0.853-0.852-1.322-1.983-1.322-3.184
	c0-1.201,0.469-2.333,1.322-3.185l56.11-56.109c0.852-0.853,1.983-1.322,3.184-1.322c1.201,0,2.333,0.469,3.185,1.322
	C131.787,141.448,132.256,142.58,132.256,143.781z M272.032,204.399c-1.206,0-2.335-0.468-3.185-1.325
	c-0.853-0.852-1.322-1.983-1.322-3.184c0-1.201,0.469-2.333,1.322-3.185l56.109-56.109c0.852-0.853,1.983-1.322,3.184-1.322
	s2.333,0.469,3.185,1.322c0.853,0.852,1.322,1.983,1.322,3.184c0,1.201-0.469,2.333-1.322,3.185l-56.117,56.116
	C274.365,203.932,273.237,204.399,272.032,204.399z"/>
<path style="fill:#625D6B;" d="M119.734,252.493c-37.293,0-67.632,30.339-67.632,67.632s30.339,67.632,67.632,67.632
	s67.632-30.339,67.632-67.632S157.026,252.493,119.734,252.493z M150.797,307.6c2.05,0,3.838,1.392,4.352,3.389
	c0.768,2.968,1.156,6.043,1.156,9.137c0,20.165-16.406,36.571-36.571,36.571s-36.571-16.406-36.571-36.571
	s16.406-36.571,36.571-36.571c3.094,0,6.169,0.389,9.142,1.158c1.165,0.3,2.145,1.036,2.759,2.073
	c0.496,0.838,0.688,1.789,0.593,2.735c8.196,3.359,14.752,9.913,18.11,18.109C150.491,307.614,150.645,307.6,150.797,307.6z"/>
<g>
	<path style="fill:#D67153;" d="M132.229,289.519c-3.858-1.581-8.075-2.459-12.494-2.459c-18.232,0-33.065,14.833-33.065,33.065
		s14.833,33.065,33.065,33.065s33.065-14.833,33.065-33.065c0-4.421-0.879-8.638-2.46-12.496
		C146.981,299.434,140.425,292.879,132.229,289.519z"/>
	<path style="fill:#D67153;" d="M380.737,289.134c-3.588-1.338-7.468-2.072-11.515-2.072c-18.232,0-33.065,14.833-33.065,33.065
		c0,18.232,14.833,33.065,33.065,33.065c18.232,0,33.064-14.833,33.064-33.065c0-4.415-0.877-8.626-2.453-12.479
		C396.343,299.118,389.395,292.361,380.737,289.134z"/>
</g>
<path d="M504.485,112.219c4.148,0,7.515,3.367,7.515,7.515s-3.367,7.515-7.515,7.515H395.382l-89.174,89.174h62.512v-48.595
	c0-4.148,3.367-7.515,7.515-7.515h64.125c12.985,0,23.546,10.561,23.546,23.546v32.564h24.548c8.567,0,15.53,6.964,15.53,15.53
	v104.203c0,8.567-6.964,15.53-15.53,15.53h-47.112c-12.254,28.265-40.409,48.094-73.123,48.094
	c-41.391,0-75.487-31.732-79.295-72.141h-89.895c-3.807,40.409-37.904,72.141-79.295,72.141c-43.926,0-79.655-35.73-79.655-79.655
	c0-28.215,14.759-53.023,36.942-67.181c-7.645-3.898-12.895-11.843-12.895-20.991v-0.501H7.515c-3.036,0-5.781-1.834-6.944-4.639
	s-0.521-6.042,1.633-8.186l94.805-94.815c7.475-7.475,17.414-11.593,27.985-11.593H504.485z M488.955,336.156V231.953
	c0-0.281-0.22-0.501-0.501-0.501H79.155v0.501c0,4.699,3.817,8.517,8.517,8.517h32.063c41.391,0,75.487,31.732,79.295,72.141h89.895
	c3.807-40.409,37.904-72.141,79.295-72.141c43.926,0,79.655,35.73,79.655,79.655c0,5.671-0.601,11.192-1.733,16.532h42.313
	C488.734,336.657,488.955,336.437,488.955,336.156z M448.877,216.423v-17.033h-48.595c-4.148,0-7.515-3.367-7.515-7.515
	c0-4.148,3.367-7.515,7.515-7.515h48.595v-0.501c0-4.699-3.817-8.517-8.517-8.517h-56.61v41.08H448.877z M432.845,320.125
	c0-35.64-28.987-64.626-64.626-64.626s-64.626,28.987-64.626,64.626s28.987,64.626,64.626,64.626S432.845,355.765,432.845,320.125z
	 M284.947,216.423l89.174-89.174H124.995c-6.553,0-12.715,2.555-17.354,7.194l-81.98,81.98h45.98H284.947z M184.36,320.125
	c0-35.64-28.987-64.626-64.626-64.626s-64.626,28.987-64.626,64.626s28.987,64.626,64.626,64.626S184.36,355.765,184.36,320.125z
	 M397.396,304.835c-4.018,1.032-6.433,5.13-5.401,9.148c0.511,1.994,0.771,4.058,0.771,6.142c0,13.536-11.011,24.548-24.548,24.548
	c-13.536,0-24.548-11.011-24.548-24.548c0-13.536,11.011-24.548,24.548-24.548c2.084,0,4.148,0.26,6.142,0.771
	c4.018,1.042,8.116-1.383,9.158-5.401c1.032-4.018-1.393-8.116-5.411-9.148c-3.216-0.832-6.543-1.252-9.889-1.252
	c-21.823,0-39.577,17.755-39.577,39.577s17.755,39.577,39.577,39.577c21.823,0,39.577-17.755,39.577-39.577
	c0-3.347-0.421-6.673-1.252-9.889C405.512,306.218,401.414,303.793,397.396,304.835z M322.831,138.471l-56.109,56.109
	c-2.936,2.936-2.936,7.685,0,10.621c1.463,1.473,3.387,2.204,5.31,2.204c1.924,0,3.848-0.731,5.31-2.204l56.109-56.109
	c2.936-2.936,2.936-7.685,0-10.621S325.766,135.535,322.831,138.471z M282.752,138.471l-56.109,56.109
	c-2.936,2.936-2.936,7.685,0,10.621c1.463,1.473,3.387,2.204,5.31,2.204s3.848-0.731,5.31-2.204l56.109-56.109
	c2.936-2.936,2.936-7.685,0-10.621C290.437,135.535,285.688,135.535,282.752,138.471z M207.906,272.532
	c-4.148,0-7.515,3.367-7.515,7.515s3.367,7.515,7.515,7.515h72.141c4.148,0,7.515-3.367,7.515-7.515s-3.367-7.515-7.515-7.515
	H207.906z M242.674,138.471l-56.109,56.109c-2.936,2.936-2.936,7.685,0,10.621c1.463,1.473,3.387,2.204,5.31,2.204
	s3.848-0.731,5.31-2.204l56.109-56.109c2.936-2.936,2.936-7.685,0-10.621C250.359,135.535,245.61,135.535,242.674,138.471z
	 M202.596,138.471l-56.109,56.109c-2.936,2.936-2.936,7.685,0,10.621c1.463,1.473,3.387,2.204,5.31,2.204s3.848-0.731,5.31-2.204
	l56.109-56.109c2.936-2.936,2.936-7.685,0-10.621S205.532,135.535,202.596,138.471z M162.518,138.471l-56.109,56.109
	c-2.936,2.936-2.936,7.685,0,10.621c1.463,1.473,3.387,2.204,5.31,2.204c1.924,0,3.848-0.731,5.31-2.204l56.109-56.109
	c2.936-2.936,2.936-7.685,0-10.621C170.203,135.535,165.454,135.535,162.518,138.471z M148.911,304.835
	c-4.018,1.032-6.433,5.13-5.401,9.148c0.511,1.994,0.772,4.058,0.772,6.142c0,13.536-11.011,24.548-24.548,24.548
	s-24.548-11.011-24.548-24.548c0-13.536,11.011-24.548,24.548-24.548c2.084,0,4.148,0.26,6.142,0.771
	c4.018,1.042,8.116-1.383,9.158-5.401c1.032-4.018-1.393-8.116-5.411-9.148c-3.216-0.832-6.543-1.252-9.889-1.252
	c-21.823,0-39.577,17.755-39.577,39.577s17.755,39.577,39.577,39.577s39.577-17.755,39.577-39.577c0-3.347-0.421-6.673-1.252-9.889
	C157.027,306.218,152.929,303.793,148.911,304.835z M122.44,138.471L66.33,194.58c-2.936,2.936-2.936,7.685,0,10.621
	c1.463,1.473,3.387,2.204,5.31,2.204c1.924,0,3.847-0.731,5.31-2.204l56.109-56.109c2.936-2.936,2.936-7.685,0-10.621
	C130.125,135.535,125.375,135.535,122.44,138.471z"/>
<g>
</g>
<g>
</g>
<g>
</g>
<g>
</g>
<g>
</g>
<g>
</g>
<g>
</g>
<g>
</g>
<g>
</g>
<g>
</g>
<g>
</g>
<g>
</g>
<g>
</g>
<g>
</g>
<g>
</g>
</svg>
