<?xml version="1.0" encoding="iso-8859-1"?>
<!-- Generator: Adobe Illustrator 19.0.0, SVG Export Plug-In . SVG Version: 6.00 Build 0)  -->
<svg version="1.1" id="Layer_1" xmlns="http://www.w3.org/2000/svg" xmlns:xlink="http://www.w3.org/1999/xlink" x="0px" y="0px"
	 viewBox="0 0 512 512" style="enable-background:new 0 0 512 512;" xml:space="preserve">
<path style="fill:#EE8A68;" d="M486.611,336.166c0-11.077,2.414-21.881,6.98-31.246l2.108-4.323h-23.215
	c-1.934,0-3.507,1.573-3.507,3.507v29.057v6.012v29.067c0,1.934,1.573,3.507,3.507,3.507h23.213l-2.104-4.321
	C489.025,358.049,486.611,347.239,486.611,336.166z"/>
<path style="fill:#D67153;" d="M346.355,336.566c0.853,2.715,1.482,5.58,1.872,8.514l0.347,2.61h111.386V332.66H345.129
	L346.355,336.566z"/>
<path style="fill:#EE8A68;" d="M267.386,269.622l80.343,15.457v-44.128c0-12.668-8.583-23.66-20.873-26.733l-66.318-16.573v70.848
	l2.541,0.398C264.368,269.09,265.885,269.335,267.386,269.622z M275.579,247.984v-16.031c0-2.486,2.023-4.509,4.509-4.509
	c2.487,0,4.509,2.023,4.509,4.509v16.031c0,2.486-2.022,4.509-4.509,4.509C277.602,252.493,275.579,250.47,275.579,247.984z
	 M299.626,247.984v-16.031c0-2.486,2.023-4.509,4.509-4.509c2.487,0,4.509,2.023,4.509,4.509v16.031
	c0,2.486-2.022,4.509-4.509,4.509C301.649,252.493,299.626,250.47,299.626,247.984z"/>
<path style="fill:#D67153;" d="M328.108,214.587c0.008,0.446,0.034,0.887,0.034,1.335c0,24.533-12.091,46.228-30.625,59.497
	l50.213,9.661v-44.129C347.73,228.721,339.719,218.075,328.108,214.587z"/>
<path style="fill:#625D6B;" d="M296.119,308.612h-240.5c-24.038,0-43.595,19.552-43.595,43.585
	c0,24.039,19.557,43.595,43.595,43.595h240.5c24.033,0,43.585-19.556,43.585-43.595
	C339.704,328.164,320.152,308.612,296.119,308.612z M296.119,372.748c-11.326,0-20.54-9.219-20.54-20.55
	c0-11.326,9.214-20.54,20.54-20.54c11.326,0,20.54,9.214,20.54,20.54C316.659,363.529,307.445,372.748,296.119,372.748z
	 M252.524,352.197c0,2.486-2.023,4.509-4.509,4.509H103.713c-2.487,0-4.509-2.023-4.509-4.509c0-2.487,2.022-4.509,4.509-4.509
	h144.302C250.502,347.688,252.524,349.711,252.524,352.197z M55.619,331.657c11.326,0,20.54,9.214,20.54,20.54
	c0,11.332-9.214,20.55-20.54,20.55c-11.332,0-20.55-9.219-20.55-20.55C35.069,340.872,44.287,331.657,55.619,331.657z"/>
<path style="fill:#D67153;" d="M296.119,340.675c-6.353,0-11.523,5.169-11.523,11.523c0,6.359,5.169,11.533,11.523,11.533
	s11.523-5.174,11.523-11.533C307.641,345.844,302.472,340.675,296.119,340.675z"/>
<path style="fill:#EE8A68;" d="M71.65,267.523h173.69c1.033,0,2.067,0.02,3.091,0.049l3.091,0.087v-23.181h-43.235
	c-27.383,0-53.714-8.301-76.148-24.004l-33.365-23.356c-9.769-6.843-15.602-18.043-15.602-29.962v-50.95H60.128V256
	C60.128,262.353,65.297,267.523,71.65,267.523z"/>
<g>
	<path style="fill:#D67153;" d="M208.287,244.478c-9.991,0-19.839-1.117-29.411-3.284c-6.131,9.887-13.731,18.768-22.502,26.329
		h88.967c1.033,0,2.067,0.02,3.091,0.049l3.091,0.087v-23.181H208.287z"/>
	<rect x="124.253" y="276.54" style="fill:#D67153;" width="103.222" height="23.055"/>
	<path style="fill:#D67153;" d="M55.619,363.731c6.353,0,11.523-5.174,11.523-11.533c0-6.353-5.169-11.523-11.523-11.523
		c-6.359,0-11.533,5.169-11.533,11.523C44.086,358.557,49.259,363.731,55.619,363.731z"/>
</g>
<path d="M511.27,292.842c1.242,2.615,0.882,5.711-0.942,7.966c-7.535,9.328-11.693,21.883-11.693,35.359
	c0,13.476,4.158,26.041,11.693,35.359c1.824,2.254,2.184,5.35,0.942,7.966c-1.252,2.615-3.888,4.278-6.783,4.278h-32.003
	c-8.557,0-15.53-6.974-15.53-15.53v-8.527H351.207c-3.677,27.123-26.973,48.104-55.088,48.104h-240.5
	C24.949,407.817,0,382.868,0,352.198c0-30.66,24.949-55.609,55.619-55.609h56.611v-17.043H71.65
	c-12.985,0-23.546-10.561-23.546-23.546V119.213h-0.501c-4.158,0-7.515-3.367-7.515-7.515s3.357-7.515,7.515-7.515h184.421
	c0.02,0,0.04,0,0.07,0h15.921c4.148,0,7.515,3.367,7.515,7.515s-3.367,7.515-7.515,7.515h-5.932l19.919,66.4l10.571,2.645v-60.528
	c0-12.985,10.561-23.546,23.546-23.546h8.016c4.148,0,7.515,3.367,7.515,7.515s-3.367,7.515-7.515,7.515h-8.016
	c-4.699,0-8.517,3.817-8.517,8.517v64.135c0,0.05-0.01,0.1-0.01,0.14l42.172,10.551c17.655,4.409,29.989,20.199,29.989,38.395
	v43.375l97.26,18.707c0.551-8.066,7.274-14.458,15.47-14.458h32.003C507.382,288.574,510.017,290.237,511.27,292.842z
	 M490.89,303.603h-18.406c-0.271,0-0.501,0.22-0.501,0.501V312c0,0.02,0,0.03,0,0.05v24.117v32.073c0,0.271,0.23,0.501,0.501,0.501
	h18.406c-4.749-9.749-7.284-20.921-7.284-32.574C483.606,324.524,486.14,313.342,490.89,303.603z M456.953,344.683v-9.018H349.223
	c0.912,2.906,1.573,5.932,1.984,9.018H456.953z M456.953,320.636v-2.315l-97.611-18.767c-1.583,6.893-7.755,12.064-15.13,12.064
	h-10.13c2.996,2.805,5.691,5.922,8.006,9.328c0.681-0.2,1.393-0.311,2.124-0.311H456.953z M344.724,281.44v-40.489
	c0-11.282-7.655-21.081-18.596-23.817l-62.582-15.641v64.426c1.473,0.23,2.946,0.471,4.409,0.751L344.724,281.44z M296.119,296.589
	h47.793l-78.794-15.16c-6.503-1.252-13.156-1.884-19.779-1.884h-5.841v17.043H296.119z M336.698,352.198
	c0-22.374-18.206-40.579-40.579-40.579h-240.5c-22.384,0-40.589,18.206-40.589,40.579c0,22.384,18.206,40.589,40.589,40.589h240.5
	C318.493,392.787,336.698,374.582,336.698,352.198z M248.516,264.567v-17.083h-40.229c-28.005,0-54.927-8.487-77.872-24.548
	L97.05,199.58c-10.571-7.404-16.883-19.518-16.883-32.423v-47.944H63.133V256c0,4.699,3.817,8.517,8.517,8.517h173.69
	C246.402,264.517,247.464,264.537,248.516,264.567z M248.516,232.454v-39.487l-22.123-73.754h-90.607H95.196v47.944
	c0,8.006,3.918,15.52,10.47,20.109l22.604,15.821v-67.342c0-4.148,3.367-7.515,7.515-7.515c4.148,0,7.515,3.367,7.515,7.515v77.722
	c19.438,12.434,41.792,18.987,64.987,18.987L248.516,232.454L248.516,232.454z M224.469,296.589v-17.043h-97.21v17.043H224.469z
	 M296.119,328.652c12.985,0,23.546,10.561,23.546,23.546s-10.561,23.556-23.546,23.556s-23.546-10.571-23.546-23.556
	S283.134,328.652,296.119,328.652z M304.636,352.198c0-4.699-3.817-8.517-8.517-8.517s-8.517,3.817-8.517,8.517
	s3.817,8.527,8.517,8.527S304.636,356.897,304.636,352.198z M304.135,224.438c-4.148,0-7.515,3.357-7.515,7.515v16.031
	c0,4.148,3.367,7.515,7.515,7.515c4.148,0,7.515-3.367,7.515-7.515v-16.031C311.649,227.795,308.283,224.438,304.135,224.438z
	 M280.088,224.438c-4.158,0-7.515,3.357-7.515,7.515v16.031c0,4.148,3.357,7.515,7.515,7.515c4.148,0,7.515-3.367,7.515-7.515
	v-16.031C287.602,227.795,284.236,224.438,280.088,224.438z M103.713,344.683c-4.148,0-7.515,3.367-7.515,7.515
	s3.367,7.515,7.515,7.515h144.302c4.148,0,7.515-3.367,7.515-7.515s-3.367-7.515-7.515-7.515H103.713z M55.619,328.652
	c12.985,0,23.546,10.561,23.546,23.546s-10.561,23.556-23.546,23.556s-23.556-10.571-23.556-23.556S42.633,328.652,55.619,328.652z
	 M64.135,352.198c0-4.699-3.817-8.517-8.517-8.517s-8.527,3.817-8.527,8.517s3.827,8.527,8.527,8.527S64.135,356.897,64.135,352.198
	z"/>
<g>
</g>
<g>
</g>
<g>
</g>
<g>
</g>
<g>
</g>
<g>
</g>
<g>
</g>
<g>
</g>
<g>
</g>
<g>
</g>
<g>
</g>
<g>
</g>
<g>
</g>
<g>
</g>
<g>
</g>
</svg>
